<svg xmlns="http://www.w3.org/2000/svg" width="800" height="800" fill-rule="evenodd"><path d="M591 683.3c-3.5-20.6-21.7-121-66.5-244a494 494 0 0 1 212.9 15c-15.2 95.2-69.7 177.2-146.4 229h0 0zm-191 58.3a340 340 0 0 1-217.6-78.3l7.6 6S255.5 526.5 458 456c.8-.3 1.6-.5 2.3-.7 48 125 68 229.5 73 259.3A341 341 0 0 1 400 741.6h0 0zM58.4 400c0-3.6.2-7.2.3-10.8 6 .1 174.8 4 350.7-48.7l27.7 58a231 231 0 0 0-13.5 4.1C239.3 462.2 145.8 628 145.8 628s.1.1.1.2C91.5 567.7 58.4 487.7 58.4 400h0 0zM254.2 91c4.6 6 67.8 91.7 127 196.8-164 43.6-306.4 42-315.4 41.7A342 342 0 0 1 254.2 91.1h0 0zm64-22.8c0 .1-.1.1-.1.1l-1 .2c.4-.1.7-.1 1-.3h0 0zm307.4 75.4c-.8 1.3-49.5 75.3-178.4 123.6L319.5 68c25.8-6.3 52.8-9.7 80.5-9.7a340 340 0 0 1 225.6 85.3h0 0zm116 253a788 788 0 0 0-237.9-11.2l-7.4-17.6-22.7-49.6c135-55 189.7-134.2 190.3-135a340 340 0 0 1 77.7 213.5h0 0zm50.4-77c-5.3-25.7-13.2-51-23.4-75.2a391 391 0 0 0-36.8-67.9c-14.3-21.2-30.8-41-48.8-59.2-18-18-38-34.5-59.3-48.8-21.3-14.5-44.2-27-68-37a398 398 0 0 0-75.1-23.3A403 403 0 0 0 400 0a403 403 0 0 0-80.6 8.2 398 398 0 0 0-75.1 23.3 396 396 0 0 0-68 36.9L117 117.2c-18 18-34.5 38-48.8 59.2a391 391 0 0 0-36.8 67.9 397 397 0 0 0-23.4 75.2A401 401 0 0 0 0 400c0 27.2 2.7 54.3 8 80.6a394 394 0 0 0 23.4 75.1c10 23.7 22.4 46.7 36.8 68a413 413 0 0 0 48.8 59.2 414 414 0 0 0 59.2 48.8c21.4 14.4 44.3 26.8 68 36.8a391 391 0 0 0 75.1 23.3A396 396 0 0 0 400 800a396 396 0 0 0 80.6-8.2 391 391 0 0 0 75.1-23.3c23.7-10 46.6-22.4 68-36.8S664.8 701 683 683a413 413 0 0 0 48.8-59.2c14.4-21.3 27-44.3 36.8-68a401 401 0 0 0 23.4-75.1c5.4-26.3 8-53.4 8-80.6a401 401 0 0 0-8.1-80.5h0 0z" fill="#bbb"/></svg>
