<svg xmlns="http://www.w3.org/2000/svg" width="800" height="784" fill-rule="evenodd"><path d="M399.5-.5A401 401 0 0 0-.5 401.1C-.5 578.5 114 729 273 782c20 3.7 27.3-8.7 27.3-19.3l-.6-68.3C188.6 718.8 165 640.7 165 640.7 147 594.3 120.7 582 120.7 582c-36.3-25 2.7-24.4 2.7-24.4 40.2 2.8 61.3 41.4 61.3 41.4 35.7 61.4 93.6 43.6 116.4 33.3 3.6-26 14-43.6 25.4-53.6C237.7 568.4 144.3 534 144.3 380c0-43.8 15.6-79.7 41.2-107.8-4-10-18-51 4-106.2 0 0 33.6-10.8 110 41 32-9 66-13.3 100-13.5a385 385 0 0 1 100.2 13.5c76.3-52 110-41 110-41 21.8 55.3 8 96 4 106.2 25.7 28 41.2 64 41.2 107.8 0 154.3-93.6 188.2-182.7 198.2 14.4 12.4 27.2 37 27.2 74.3l-.5 110.2c0 10.7 7.2 23.2 27.5 19.3C685 729 799.5 578.5 799.5 401A401 401 0 0 0 399.5-.5" fill="#bbb"/></svg>
