<svg xmlns="http://www.w3.org/2000/svg" width="600" height="600" fill-rule="evenodd"><path d="M511.3 511.3h-89V372c0-33.2-.6-76-46.3-76-46.3 0-53.4 36.2-53.4 73.5v141.7h-89V225h85.4V264h1.2a94 94 0 0 1 84.2-46.3c90 0 106.7 59.3 106.7 136.4v157zM133.5 185.8a52 52 0 0 1-51.6-51.6 52 52 0 0 1 51.6-51.6 52 52 0 0 1 51.6 51.6 52 52 0 0 1-51.6 51.6zM178 511.3H89V225h89v286.4zM555.5 0H44.3A44 44 0 0 0 0 43.3v513.4A44 44 0 0 0 44.3 600h511.3a44 44 0 0 0 44.4-43.3V43.3A44 44 0 0 0 555.6.1z" fill="#bbb"/></svg>
