<svg xmlns="http://www.w3.org/2000/svg" width="578" height="579" stroke="#000" stroke-linecap="round" stroke-linejoin="round" fill="#fff" fill-rule="evenodd"><path d="M291.4 578.2c-12 0-24.3-.8-36.3-2.3-132-17.2-236-121-253-253C-18 172.4 81.3 32 229.7.5c16-3.6 32.7 2.7 42.4 16 9.8 13.8 10.5 32.2 1.6 46.7a177 177 0 0 0-22 115.7c11.6 75.3 70.7 134.3 146 146a173 173 0 0 0 115.7-22.4c14.6-8.6 33-7.7 46.7 2.4 13.3 9.4 19.6 26 16 42a290 290 0 0 1-284.7 231.3zm-69.7-522c-81.8 24-145 89.4-166 172s3 170.3 63.3 230.7c60.3 60.3 148 84.3 230.6 63.2 82.7-21 148-84.2 172-166-64 31.2-139 30.2-202-2.7-63.2-32.8-107-93.7-118.2-164-7-45.5.1-92 20.3-133.3z" stroke="none" fill-rule="nonzero"/></svg>