<svg xmlns="http://www.w3.org/2000/svg" width="667" height="667" stroke="none" stroke-linecap="round" stroke-linejoin="round" fill="#0f338e" fill-rule="nonzero"><path d="M332.8 524.5c-105.8 0-191.6-85.8-191.6-191.7 0-105.8 85.8-191.6 191.6-191.6 106 0 191.7 85.8 191.7 191.6a192 192 0 0 1-191.7 191.7zm0-333.3c-78.2 0-141.6 63.4-141.6 141.6 0 78.3 63.4 141.7 141.6 141.7 78.3 0 141.7-63.4 141.7-141.7a142 142 0 0 0-141.7-141.6zm0-91.7c-13.7-.2-24.8-11.3-25-25v-50a25 25 0 1 1 50 0v50c-.1 13.7-11.2 24.8-25 25zm0 566.7c-13.7-.2-24.8-11.3-25-25v-50a25 25 0 1 1 50 0v50c-.1 13.7-11.2 24.8-25 25zm308.4-308.4h-50a25 25 0 1 1 0-50h50a25 25 0 1 1 0 50zm-566.7 0h-50a25 25 0 1 1 0-50h50a25 25 0 1 1 0 50zm75-183.3c-6.4-.5-12.4-3.5-16.7-8.3l-36.3-33.4c-6.5-6.5-9-16-6.6-24.8 2.3-8.8 9.3-15.8 18-18 9-2.4 18.3.1 24.8 6.6l33.4 36.3a25 25 0 0 1 0 33.4c-4.3 4.8-10.3 7.8-16.7 8.3zm402 402a25 25 0 0 1-17.7-7.3l-34.3-36.4c-4.6-9.5-2.6-21 5-28.4s19-9.5 28.4-5l36.4 33.3c9.7 9.8 9.7 25.6 0 35.4-4.5 5-11 8-17.7 8.3z"/><path d="M516.2 174.5a25 25 0 0 1-16.7-41.6l33.3-36.4c6.5-6.5 16-9 25-6.6 8.8 2.4 15.8 9.3 18 18 2.4 9-.1 18.4-6.6 25l-36.4 33.3c-4.2 4.8-10.2 7.8-16.6 8.3zm-402 402c-6.7.1-13-2.6-17.7-7.3a25 25 0 0 1 0-35.3l36.3-34.4c9.6-4.5 21-2.6 28.5 5s9.4 19 5 28.5l-33.4 36.3c-5 5-11.6 7.6-18.6 7.3z"/></svg>