<svg xmlns="http://www.w3.org/2000/svg" xmlns:xlink="http://www.w3.org/1999/xlink" viewBox="0 0 256 256"><circle transform="matrix(.7071 -.7071 .7071 .7071 -53.0193 128)" cx="128" cy="128" r="119.4" fill="#382b73"/><g fill="#291b4a"><path d="M120.953 201.116a2.5 2.5 0 0 0 2.5-2.5V65.384a2.5 2.5 0 0 0-2.5-2.5H53.35a2.5 2.5 0 0 0-2.5 2.5v133.232a2.5 2.5 0 0 0 2.5 2.5h67.603zM55.85 67.884h62.603v128.232H55.85V67.884z"/><use xlink:href="#B"/><use xlink:href="#B" y="15.154"/><use xlink:href="#B" y="30.308"/><use xlink:href="#C"/><path d="M96.547 152.815a2.5 2.5 0 1 0 0-5H77.756a2.5 2.5 0 1 0 0 5h18.791z"/><use xlink:href="#D"/><use xlink:href="#E"/><use xlink:href="#F"/><path d="M202.65 105.892a2.5 2.5 0 0 0 2.5-2.5V65.384a2.5 2.5 0 0 0-2.5-2.5h-65.26a2.5 2.5 0 0 0-2.5 2.5v38.008a2.5 2.5 0 0 0 2.5 2.5h65.26zm-62.76-38.008h60.261v33.008H139.89V67.884z"/><use xlink:href="#D" y="47.612"/><path d="M158.759 120.989a2.5 2.5 0 0 0-3.535 0l-9.243 9.244a2.5 2.5 0 0 0 0 3.535l9.243 9.244c.488.488 1.128.732 1.768.732s1.279-.244 1.768-.732a2.5 2.5 0 0 0 0-3.535L151.283 132l7.476-7.476a2.5 2.5 0 0 0 0-3.535z"/><use xlink:href="#F" y="47.612"/><use xlink:href="#G"/><use xlink:href="#D" y="95.225"/><path d="M158.759 168.601a2.5 2.5 0 0 0-3.535 0l-9.243 9.244a2.5 2.5 0 0 0 0 3.535l9.243 9.244c.488.488 1.128.732 1.768.732s1.279-.244 1.768-.732a2.5 2.5 0 0 0 0-3.536l-7.476-7.477 7.476-7.476a2.5 2.5 0 0 0-.001-3.534z"/><use xlink:href="#F" y="95.224"/><use xlink:href="#G" y="47.612"/><path d="M169.435 57.148a2.5 2.5 0 0 0 2.5-2.5V40.979a2.5 2.5 0 0 0-2.5-2.5H86.566a2.5 2.5 0 0 0-2.5 2.5v13.669a2.5 2.5 0 1 0 5 0V43.479h77.869v11.169a2.5 2.5 0 0 0 2.5 2.5z"/><use xlink:href="#H"/></g><g fill="#f9b087"><path d="M120.953 197.116a2.5 2.5 0 0 0 2.5-2.5V61.384a2.5 2.5 0 0 0-2.5-2.5H53.35a2.5 2.5 0 0 0-2.5 2.5v133.232a2.5 2.5 0 0 0 2.5 2.5h67.603zM55.85 63.884h62.603v128.232H55.85V63.884z"/><use xlink:href="#B" y="-4"/><use xlink:href="#B" y="11.154"/><use xlink:href="#B" y="26.308"/></g><use xlink:href="#C" y="-4" fill="#d3d3d3"/><path d="M96.547 148.815a2.5 2.5 0 1 0 0-5H77.756a2.5 2.5 0 1 0 0 5h18.791z" fill="#f9b087"/><g fill="#ff8639"><path d="M120.953 197.116a2.5 2.5 0 0 0 2.5-2.5V61.384a2.5 2.5 0 0 0-2.5-2.5H53.35a2.5 2.5 0 0 0-2.5 2.5v133.232a2.5 2.5 0 0 0 2.5 2.5h67.603zm-68.603-2.5V61.384a1 1 0 0 1 1-1h67.603a1 1 0 0 1 1 1v133.232a1 1 0 0 1-1 1H53.35a1 1 0 0 1-1-1zm3.5-1h62.603a1.5 1.5 0 0 0 1.5-1.5V63.884a1.5 1.5 0 0 0-1.5-1.5H55.85a1.5 1.5 0 0 0-1.5 1.5v128.232a1.5 1.5 0 0 0 1.5 1.5zm0-129.732h62.603v128.232H55.85V63.884z"/><use xlink:href="#I"/><path d="M105.803 97.11a2.5 2.5 0 1 0 0-5H68.5a2.5 2.5 0 1 0 0 5h37.303zM67.5 94.61a1 1 0 0 1 1-1h37.303a1 1 0 1 1 0 2H68.5a1 1 0 0 1-1-1z"/><use xlink:href="#I" y="30.308"/><path d="M96.547 148.815a2.5 2.5 0 1 0 0-5H77.756a2.5 2.5 0 1 0 0 5h18.791zm-19.791-2.5a1 1 0 0 1 1-1h18.791a1 1 0 1 1 0 2H77.756a1 1 0 0 1-1-1z"/></g><g fill="#65c1d6"><use xlink:href="#D" y="-4"/><use xlink:href="#E" y="-4"/><use xlink:href="#F" y="-4"/><path d="M202.65 101.892a2.5 2.5 0 0 0 2.5-2.5V61.384a2.5 2.5 0 0 0-2.5-2.5h-65.26a2.5 2.5 0 0 0-2.5 2.5v38.008a2.5 2.5 0 0 0 2.5 2.5h65.26zm-62.76-38.008h60.261v33.008H139.89V63.884z"/><use xlink:href="#D" y="43.612"/><path d="M158.759 116.989a2.5 2.5 0 0 0-3.535 0l-9.243 9.244a2.5 2.5 0 0 0 0 3.535l9.243 9.244c.488.488 1.128.732 1.768.732s1.279-.244 1.768-.732a2.5 2.5 0 0 0 0-3.535L151.283 128l7.476-7.476a2.5 2.5 0 0 0 0-3.535z"/><use xlink:href="#F" y="43.612"/><use xlink:href="#G" y="-4"/><use xlink:href="#D" y="91.225"/><path d="M158.759 164.601a2.5 2.5 0 0 0-3.535 0l-9.243 9.244a2.5 2.5 0 0 0 0 3.535l9.243 9.244c.488.488 1.128.732 1.768.732s1.279-.244 1.768-.732a2.5 2.5 0 0 0 0-3.535l-7.476-7.476 7.476-7.476c.975-.977.975-2.56-.001-3.536z"/><use xlink:href="#F" y="91.224"/><use xlink:href="#G" y="43.612"/></g><g fill="#149cb2"><use xlink:href="#J"/><use xlink:href="#K"/><path d="M165.133 92.132c.882 0 1.736-.467 2.191-1.294l10.184-18.487a2.5 2.5 0 0 0-2.188-3.706c-.882 0-1.736.467-2.191 1.294l-10.184 18.487a2.5 2.5 0 0 0 .983 3.396c.384.21.797.31 1.205.31zm-.874-2.983l10.184-18.489c.175-.319.511-.516.876-.516.169 0 .331.042.481.124a.99.99 0 0 1 .478.598c.074.256.044.527-.085.761L166.01 90.114a1 1 0 0 1-.877.517c-.169 0-.331-.042-.48-.124a.99.99 0 0 1-.394-1.358zm38.391 12.743a2.5 2.5 0 0 0 2.5-2.5V61.384a2.5 2.5 0 0 0-2.5-2.5h-65.26a2.5 2.5 0 0 0-2.5 2.5v38.008a2.5 2.5 0 0 0 2.5 2.5h65.26zm-66.26-2.5V61.384a1 1 0 0 1 1-1h65.261a1 1 0 0 1 1 1v38.008a1 1 0 0 1-1 1H137.39a1 1 0 0 1-1-1zm3.5-1h60.261a1.5 1.5 0 0 0 1.5-1.5V63.884a1.5 1.5 0 0 0-1.5-1.5H139.89a1.5 1.5 0 0 0-1.5 1.5v33.008a1.5 1.5 0 0 0 1.5 1.5zm0-34.508h60.261v33.008H139.89V63.884zm41.391 75.127c.488.488 1.128.732 1.768.732s1.279-.244 1.768-.732l9.243-9.244a2.5 2.5 0 0 0 0-3.535l-9.243-9.244c-.488-.488-1.128-.732-1.768-.732s-1.279.244-1.768.732a2.5 2.5 0 0 0 0 3.535l7.476 7.476-7.476 7.476a2.5 2.5 0 0 0 0 3.536zm1.061-2.474l7.476-7.476a1.5 1.5 0 0 0 0-2.121l-7.476-7.476c-.189-.189-.293-.44-.293-.707s.104-.518.293-.707.44-.293.707-.293.518.104.707.293l9.243 9.244c.189.189.293.44.293.707s-.104.518-.293.707l-9.243 9.244c-.189.189-.44.293-.707.293s-.518-.104-.707-.293-.293-.44-.293-.707.104-.519.293-.708zm-23.583-19.548c-.488-.488-1.128-.732-1.768-.732s-1.279.244-1.768.732l-9.243 9.244a2.5 2.5 0 0 0 0 3.535l9.243 9.244c.488.488 1.128.732 1.768.732s1.279-.244 1.768-.732a2.5 2.5 0 0 0 0-3.535L151.283 128l7.476-7.476a2.5 2.5 0 0 0 0-3.535zm-1.061 2.474l-7.476 7.476a1.5 1.5 0 0 0 0 2.121l7.476 7.476c.189.189.293.44.293.707s-.104.518-.293.707-.44.293-.707.293-.518-.104-.707-.293l-9.243-9.244c-.189-.189-.293-.44-.293-.707s.104-.518.293-.707l9.243-9.244c.189-.189.44-.293.707-.293s.518.104.707.293.293.44.293.707-.104.519-.293.708zm7.435 20.281c.882 0 1.736-.467 2.191-1.294l10.184-18.487a2.5 2.5 0 0 0-.983-3.396 2.49 2.49 0 0 0-1.204-.311c-.882 0-1.736.468-2.191 1.295l-10.184 18.487a2.5 2.5 0 0 0 .983 3.396c.383.21.796.31 1.204.31zm-.874-2.983l10.184-18.489a1 1 0 0 1 .877-.517c.169 0 .33.042.481.125a.99.99 0 0 1 .478.598c.074.256.044.527-.085.761l-10.184 18.488a1 1 0 0 1-.877.517c-.169 0-.331-.042-.48-.124a.99.99 0 0 1-.394-1.359z"/><use xlink:href="#L"/><use xlink:href="#M"/><use xlink:href="#J" y="95.225"/><use xlink:href="#K" y="95.225"/><path d="M165.133 187.356c.882 0 1.736-.467 2.191-1.294l10.184-18.487a2.5 2.5 0 0 0-.983-3.396 2.49 2.49 0 0 0-1.205-.311c-.882 0-1.736.467-2.19 1.295l-10.184 18.487a2.5 2.5 0 0 0 .983 3.396c.383.21.796.31 1.204.31zm-.874-2.982l10.185-18.489a1 1 0 0 1 .876-.517c.169 0 .331.042.481.125a.99.99 0 0 1 .478.598c.074.257.044.527-.085.761L166.01 185.34a1 1 0 0 1-.877.517c-.169 0-.331-.042-.48-.124a.99.99 0 0 1-.394-1.359z"/><use xlink:href="#L" y="47.612"/><use xlink:href="#M" y="47.612"/></g><g fill="#d3d3d3"><path d="M169.435 53.148a2.5 2.5 0 0 0 2.5-2.5V36.979a2.5 2.5 0 0 0-2.5-2.5H86.566a2.5 2.5 0 0 0-2.5 2.5v13.669a2.5 2.5 0 1 0 5 0V39.479h77.869v11.169a2.5 2.5 0 0 0 2.5 2.5z"/><use xlink:href="#H" y="-4"/></g><path d="M99.047 166.984c0-6.559-5.336-11.895-11.896-11.895a11.91 11.91 0 0 0-11.895 11.895c0 6.559 5.336 11.895 11.895 11.895s11.896-5.336 11.896-11.895zm-22.291 0a10.41 10.41 0 0 1 10.395-10.395 10.41 10.41 0 0 1 10.396 10.395 10.41 10.41 0 0 1-10.396 10.395 10.41 10.41 0 0 1-10.395-10.395zm18.791 0c0-4.629-3.766-8.395-8.396-8.395s-8.395 3.766-8.395 8.395 3.766 8.395 8.395 8.395a8.41 8.41 0 0 0 8.396-8.395zm-15.291 0c0-3.802 3.093-6.895 6.895-6.895s6.896 3.093 6.896 6.895-3.093 6.895-6.896 6.895-6.895-3.093-6.895-6.895zm89.179-113.836a2.5 2.5 0 0 0 2.5-2.5V36.979a2.5 2.5 0 0 0-2.5-2.5H86.566a2.5 2.5 0 0 0-2.5 2.5v13.669a2.5 2.5 0 1 0 5 0V39.479h77.869v11.169a2.5 2.5 0 0 0 2.5 2.5zM89.066 37.979a1.5 1.5 0 0 0-1.5 1.5v11.169a1 1 0 1 1-2 0V36.979a1 1 0 0 1 1-1h82.869a1 1 0 0 1 1 1v13.669a1 1 0 1 1-2 0V39.479a1.5 1.5 0 0 0-1.5-1.5H89.066zm-2.5 164.873a2.5 2.5 0 0 0-2.5 2.5v13.669a2.5 2.5 0 0 0 2.5 2.5h82.869a2.5 2.5 0 0 0 2.5-2.5v-13.669a2.5 2.5 0 1 0-5 0v11.169H89.066v-11.169a2.5 2.5 0 0 0-2.5-2.5zm80.369 15.169a1.5 1.5 0 0 0 1.5-1.5v-11.169a1 1 0 1 1 2 0v13.669a1 1 0 0 1-1 1H86.566a1 1 0 0 1-1-1v-13.669a1 1 0 1 1 2 0v11.169a1.5 1.5 0 0 0 1.5 1.5h77.869z" fill="#ebe7f2"/><defs ><path id="B" d="M105.803 85.956a2.5 2.5 0 1 0 0-5H68.5a2.5 2.5 0 1 0 0 5h37.303z"/><path id="C" d="M99.047 170.984c0-6.559-5.336-11.895-11.896-11.895a11.91 11.91 0 0 0-11.895 11.895c0 6.559 5.336 11.895 11.895 11.895s11.896-5.336 11.896-11.895zm-18.791 0c0-3.802 3.093-6.895 6.895-6.895s6.896 3.093 6.896 6.895-3.093 6.895-6.896 6.895-6.895-3.093-6.895-6.895z"/><path id="D" d="M181.281 95.399c.488.488 1.128.732 1.768.732s1.279-.244 1.768-.732l9.243-9.244a2.5 2.5 0 0 0 0-3.535l-9.243-9.244a2.5 2.5 0 0 0-3.535 3.535l7.476 7.476-7.476 7.476a2.5 2.5 0 0 0-.001 3.536z"/><path id="E" d="M158.759 73.376a2.5 2.5 0 0 0-3.535 0l-9.243 9.244a2.5 2.5 0 0 0 0 3.535l9.243 9.244c.488.488 1.128.732 1.768.732s1.279-.244 1.768-.732a2.5 2.5 0 0 0 0-3.535l-7.476-7.476 7.476-7.476c.975-.976.975-2.559-.001-3.536z"/><path id="F" d="M165.133 96.132c.882 0 1.736-.467 2.191-1.294l10.184-18.487a2.5 2.5 0 0 0-4.379-2.412l-10.184 18.487a2.5 2.5 0 0 0 .983 3.396c.384.21.797.31 1.205.31z"/><path id="G" d="M202.65 153.504a2.5 2.5 0 0 0 2.5-2.5v-38.008a2.5 2.5 0 0 0-2.5-2.5h-65.26a2.5 2.5 0 0 0-2.5 2.5v38.008a2.5 2.5 0 0 0 2.5 2.5h65.26zm-62.76-38.008h60.261v33.008H139.89v-33.008z"/><path id="H" d="M86.566 206.852a2.5 2.5 0 0 0-2.5 2.5v13.669a2.5 2.5 0 0 0 2.5 2.5h82.869a2.5 2.5 0 0 0 2.5-2.5v-13.669a2.5 2.5 0 1 0-5 0v11.169H89.066v-11.169a2.5 2.5 0 0 0-2.5-2.5z"/><path id="I" d="M105.803 81.956a2.5 2.5 0 1 0 0-5H68.5a2.5 2.5 0 1 0 0 5h37.303zm-38.303-2.5a1 1 0 0 1 1-1h37.303a1 1 0 1 1 0 2H68.5a1 1 0 0 1-1-1z"/><path id="J" d="M181.281 91.399c.488.488 1.128.732 1.768.732s1.279-.244 1.768-.732l9.243-9.244a2.5 2.5 0 0 0 0-3.535l-9.243-9.244c-.488-.488-1.128-.732-1.768-.732s-1.279.244-1.768.732a2.5 2.5 0 0 0 0 3.535l7.476 7.476-7.476 7.476a2.5 2.5 0 0 0 0 3.536zm1.061-2.475l7.476-7.476a1.5 1.5 0 0 0 0-2.121l-7.476-7.476c-.189-.189-.293-.44-.293-.707s.104-.518.293-.707.44-.293.707-.293.518.104.707.293l9.243 9.244c.189.189.293.44.293.707s-.104.518-.293.707l-9.243 9.244c-.189.189-.44.293-.707.293s-.518-.104-.707-.293-.293-.44-.293-.707.104-.519.293-.708z"/><path id="K" d="M158.759 69.376c-.488-.488-1.128-.732-1.768-.732s-1.279.244-1.768.732l-9.243 9.244a2.5 2.5 0 0 0 0 3.535l9.243 9.244c.488.488 1.128.732 1.768.732s1.279-.244 1.768-.732a2.5 2.5 0 0 0 0-3.535l-7.476-7.476 7.476-7.476a2.5 2.5 0 0 0 0-3.536zm-1.061 2.475l-7.476 7.476a1.5 1.5 0 0 0 0 2.121l7.476 7.476c.189.189.293.44.293.707s-.104.518-.293.707-.44.293-.707.293-.518-.104-.707-.293l-9.243-9.244c-.189-.189-.293-.44-.293-.707s.104-.518.293-.707l9.243-9.244c.189-.189.44-.293.707-.293s.518.104.707.293.293.44.293.707-.104.519-.293.708z"/><path id="L" d="M139.89 146.004h60.261a1.5 1.5 0 0 0 1.5-1.5v-33.008a1.5 1.5 0 0 0-1.5-1.5H139.89a1.5 1.5 0 0 0-1.5 1.5v33.008a1.5 1.5 0 0 0 1.5 1.5zm0-34.508h60.261v33.008H139.89v-33.008z"/><path id="M" d="M202.65 149.504a2.5 2.5 0 0 0 2.5-2.5v-38.008a2.5 2.5 0 0 0-2.5-2.5h-65.26a2.5 2.5 0 0 0-2.5 2.5v38.008a2.5 2.5 0 0 0 2.5 2.5h65.26zm-66.26-2.5v-38.008a1 1 0 0 1 1-1h65.261a1 1 0 0 1 1 1v38.008a1 1 0 0 1-1 1H137.39a1 1 0 0 1-1-1z"/></defs></svg>
