<svg xmlns="http://www.w3.org/2000/svg" xmlns:xlink="http://www.w3.org/1999/xlink" viewBox="0 0 256 256"><circle transform="matrix(.7071 -.7071 .7071 .7071 -53.0193 128)" cx="128" cy="128" r="119.4" fill="#382b73"/><path d="M61.998 131.124c-6.231 1.095-10.984 6.534-10.984 13.074 0 7.327 5.961 13.288 13.288 13.288s13.288-5.961 13.288-13.288c0-6.399-4.547-11.755-10.58-13.009 1.793-22.047 15.217-41.292 35.476-50.597.016-.007.029-.019.044-.026l2.978.767-2.596 4.398c-1.197 2.033-.868 4.617.8 6.285l4.289 4.289c1.668 1.669 4.252 1.998 6.287.799l4.396-2.595 1.274 4.945c.59 2.284 2.65 3.878 5.01 3.878h6.065a5.18 5.18 0 0 0 5.011-3.88l1.274-4.943 4.397 2.596c2.034 1.197 4.617.866 6.284-.8l4.289-4.289c1.668-1.667 1.997-4.251.8-6.287l-2.595-4.396 2.989-.77c.034.018.063.042.098.058 20.221 9.317 33.621 28.55 35.411 50.568-6.033 1.254-10.58 6.61-10.58 13.009 0 7.327 5.961 13.288 13.288 13.288s13.288-5.961 13.288-13.288c0-6.54-4.753-11.979-10.984-13.074-1.741-22.854-15.045-42.968-35.34-53.564.417-.75.654-1.607.654-2.51v-.013h14.831c1.373 5.875 6.642 10.268 12.929 10.268 7.326 0 13.287-5.961 13.287-13.288s-5.961-13.288-13.287-13.288c-6.652 0-12.163 4.919-13.124 11.307h-14.636v-1.052c0-2.359-1.595-4.419-3.878-5.01l-4.945-1.273 2.597-4.399c1.195-2.032.866-4.617-.802-6.284L148 47.728c-1.667-1.666-4.253-1.996-6.286-.798l-4.396 2.595-1.275-4.946c-.591-2.283-2.651-3.877-5.01-3.877h-6.065c-2.359 0-4.419 1.595-5.01 3.88l-1.273 4.943-4.399-2.597c-2.033-1.196-4.617-.867-6.284.801l-4.289 4.289c-1.668 1.667-1.997 4.252-.799 6.287l2.594 4.396-4.946 1.274c-2.283.591-3.877 2.651-3.877 5.01v1.052H81.003c-.961-6.388-6.471-11.307-13.123-11.307-7.327 0-13.288 5.961-13.288 13.288s5.961 13.288 13.288 13.288c6.287 0 11.556-4.394 12.928-10.268h15.876v.013c0 .903.237 1.76.654 2.51-20.297 10.595-33.6 30.703-35.34 53.563zm10.59 13.075a8.3 8.3 0 0 1-8.288 8.288 8.3 8.3 0 0 1-8.288-8.288 8.3 8.3 0 0 1 8.267-8.287l.075.002a8.3 8.3 0 0 1 8.234 8.285zm119.132-8.287a8.3 8.3 0 0 1 8.267 8.287 8.3 8.3 0 0 1-8.288 8.288 8.3 8.3 0 0 1-8.288-8.288 8.3 8.3 0 0 1 8.235-8.285l.074-.002zm-4.644-72.182a8.3 8.3 0 0 1 8.287 8.288 8.3 8.3 0 0 1-8.287 8.288 8.3 8.3 0 0 1-8.288-8.288 8.3 8.3 0 0 1 8.288-8.288zm-85.392 5.255c0-.08.054-.15.128-.169l8.161-2.103a2.5 2.5 0 0 0 1.686-1.464c.301-.726.243-1.551-.157-2.227l-4.282-7.256c-.041-.068-.029-.156.027-.212l4.289-4.289c.056-.057.145-.067.21-.028l7.258 4.284a2.5 2.5 0 0 0 2.228.157c.726-.3 1.269-.925 1.464-1.686l2.103-8.16c.02-.077.089-.13.169-.13h6.065c.08 0 .149.054.169.128l2.104 8.162a2.5 2.5 0 0 0 1.464 1.686c.728.301 1.553.243 2.228-.157l7.256-4.283c.069-.041.156-.028.212.027l4.289 4.289c.057.057.067.145.028.21l-4.284 7.258a2.5 2.5 0 0 0 1.53 3.692l8.159 2.103c.077.02.131.09.131.169v6.065c0 .08-.054.149-.129.168l-8.161 2.103a2.5 2.5 0 0 0-1.53 3.692l4.283 7.254c.04.069.029.157-.027.213l-4.289 4.289c-.056.056-.143.068-.21.029l-7.258-4.284a2.5 2.5 0 0 0-3.692 1.529l-2.103 8.159c-.021.077-.09.131-.17.131h-6.065c-.08 0-.149-.054-.168-.128l-2.103-8.162a2.5 2.5 0 0 0-2.421-1.876c-.441 0-.881.117-1.271.347l-7.254 4.282c-.07.041-.157.029-.213-.026l-4.289-4.289c-.056-.057-.067-.144-.028-.21l4.284-7.258a2.5 2.5 0 0 0 .157-2.227c-.3-.726-.925-1.269-1.686-1.464l-8.158-2.102c-.077-.02-.131-.09-.131-.169v-6.067zM67.88 80.305a8.3 8.3 0 0 1-8.288-8.288 8.3 8.3 0 0 1 8.288-8.288 8.3 8.3 0 0 1 8.288 8.288 8.3 8.3 0 0 1-8.288 8.288zm72.43-8.287c0-6.788-5.522-12.31-12.31-12.31s-12.31 5.522-12.31 12.31 5.522 12.31 12.31 12.31a12.33 12.33 0 0 0 12.31-12.31zm-19.62 0a7.32 7.32 0 0 1 7.31-7.31 7.32 7.32 0 0 1 7.31 7.31 7.32 7.32 0 0 1-7.31 7.31 7.32 7.32 0 0 1-7.31-7.31zM91.28 194.763a8.75 8.75 0 0 0 8.736 8.735h2.063v17.3a2.5 2.5 0 1 0 5 0v-17.3h41.844v17.3a2.5 2.5 0 1 0 5 0v-17.3h2.063c4.816 0 8.735-3.918 8.735-8.735a8.75 8.75 0 0 0-8.735-8.736h-6.747l8.803-25.164a10.22 10.22 0 0 0-.822-8.656l-20.325-34.474c-.731-1.268-1.715-2.357-2.987-3.282-3.533-2.405-8.277-2.405-11.874.045-1.208.879-2.192 1.967-2.913 3.216l-20.327 34.479c-1.554 2.589-1.865 5.832-.842 8.643l8.812 25.193h-6.747a8.75 8.75 0 0 0-8.737 8.736zM128 151.87a5.47 5.47 0 0 1 5.462 5.462 5.47 5.47 0 0 1-5.462 5.462 5.47 5.47 0 0 1-5.462-5.462A5.47 5.47 0 0 1 128 151.87zm-25.34 7.284a5.19 5.19 0 0 1 .43-4.408l20.348-34.515a5.38 5.38 0 0 1 1.472-1.647 5.25 5.25 0 0 1 .59-.338v28.938c-4.564 1.125-7.962 5.242-7.962 10.148 0 5.769 4.693 10.462 10.462 10.462s10.462-4.693 10.462-10.462c0-4.906-3.399-9.022-7.962-10.148v-28.945c.18.093.359.186.527.3a5.5 5.5 0 0 1 1.546 1.712l20.348 34.511c.786 1.312.943 2.953.41 4.42l-9.391 26.844h-31.881l-9.399-26.872zm53.324 31.873a3.74 3.74 0 0 1 3.735 3.736 3.74 3.74 0 0 1-3.735 3.735h-55.969a3.74 3.74 0 0 1-3.736-3.735 3.74 3.74 0 0 1 3.736-3.736h55.969z" fill="#291b4a"/><path d="M99.184 71.037a2.5 2.5 0 1 0 0-5H79.712a2.5 2.5 0 1 0 0 5h19.472z" fill="#ed9abc"/><path d="M99.184 71.037a2.5 2.5 0 1 0 0-5H79.712a2.5 2.5 0 1 0 0 5h19.472zm-20.472-2.5a1 1 0 0 1 1-1h19.472a1 1 0 1 1 0 2H79.712a1 1 0 0 1-1-1z" fill="#e54890"/><path d="M176.288 71.037a2.5 2.5 0 1 0 0-5h-19.472a2.5 2.5 0 1 0 0 5h19.472z" fill="#ed9abc"/><path d="M176.288 71.037a2.5 2.5 0 1 0 0-5h-19.472a2.5 2.5 0 1 0 0 5h19.472zm-20.472-2.5a1 1 0 0 1 1-1h19.472a1 1 0 1 1 0 2h-19.472a1 1 0 0 1-1-1z" fill="#e54890"/><path d="M189.14 129.522a2.5 2.5 0 0 0 2.496 2.391l.11-.002a2.5 2.5 0 0 0 2.39-2.606c-1.084-24.865-15.822-46.792-38.464-57.224a2.5 2.5 0 0 0-3.316 1.225 2.5 2.5 0 0 0 1.225 3.316c20.932 9.645 34.558 29.915 35.559 52.9z" fill="#ed9abc"/><path d="M189.14 129.522a2.5 2.5 0 0 0 2.496 2.391l.11-.002a2.5 2.5 0 0 0 2.39-2.606c-1.084-24.865-15.822-46.792-38.464-57.224-.339-.156-.695-.23-1.045-.23a2.5 2.5 0 0 0-1.047 4.771c20.933 9.645 34.559 29.915 35.56 52.9zm-35.422-55.588c.163-.354.52-.583.91-.583.143 0 .283.031.417.093 22.129 10.195 36.534 31.625 37.593 55.926.024.551-.405 1.019-1.001 1.044-.536 0-.974-.42-.997-.956-1.026-23.549-14.985-44.317-36.431-54.198-.243-.112-.427-.311-.52-.562s-.083-.522.029-.764z" fill="#e54890"/><path d="M64.364 131.914a2.5 2.5 0 0 0 2.496-2.391c1.003-23.016 14.654-43.297 35.625-52.93a2.5 2.5 0 1 0-2.086-4.544c-22.682 10.419-37.447 32.358-38.533 57.256a2.5 2.5 0 0 0 2.389 2.606c.036.002.072.003.109.003z" fill="#ed9abc"/><path d="M64.364 131.914a2.5 2.5 0 0 0 2.496-2.391c1.003-23.016 14.654-43.297 35.625-52.93a2.5 2.5 0 0 0 1.229-3.315c-.422-.917-1.328-1.458-2.274-1.458a2.49 2.49 0 0 0-1.041.229c-22.682 10.419-37.447 32.358-38.533 57.256a2.5 2.5 0 0 0 2.389 2.606c.036.002.072.003.109.003zm-1.001-2.544c1.061-24.333 15.491-45.775 37.661-55.958.132-.061.272-.092.414-.092.39 0 .748.229.911.584a1 1 0 0 1-.492 1.326c-21.484 9.868-35.469 30.647-36.497 54.227-.023.536-.461.957-.997.957l-.046-.001a1 1 0 0 1-.954-1.043z" fill="#e54890"/><g fill="#65c1d6"><use xlink:href="#B"/><path d="M200.363 68.018c0-7.327-5.961-13.288-13.287-13.288s-13.288 5.961-13.288 13.288 5.961 13.288 13.288 13.288 13.287-5.962 13.287-13.288zm-21.575 0a8.3 8.3 0 0 1 8.288-8.288 8.3 8.3 0 0 1 8.287 8.288 8.3 8.3 0 0 1-8.287 8.288 8.3 8.3 0 0 1-8.288-8.288z"/><use xlink:href="#B" x="-3.579" y="72.181"/><path d="M204.987 140.199c0-7.327-5.961-13.288-13.288-13.288s-13.288 5.961-13.288 13.288 5.961 13.288 13.288 13.288 13.288-5.962 13.288-13.288zm-21.576 0a8.3 8.3 0 0 1 8.288-8.288 8.3 8.3 0 0 1 8.288 8.288 8.3 8.3 0 0 1-8.288 8.288 8.3 8.3 0 0 1-8.288-8.288zM128 80.327c6.787 0 12.31-5.522 12.31-12.31s-5.522-12.31-12.31-12.31-12.31 5.522-12.31 12.31 5.522 12.31 12.31 12.31zm0-19.619a7.32 7.32 0 0 1 7.31 7.31 7.32 7.32 0 0 1-7.31 7.31 7.32 7.32 0 0 1-7.31-7.31 7.32 7.32 0 0 1 7.31-7.31zm-31.316 4.277v6.065c0 2.358 1.595 4.418 3.88 5.01l4.943 1.273-2.596 4.398c-1.197 2.033-.868 4.617.8 6.285L108 92.305c1.668 1.668 4.252 1.998 6.287.799l4.396-2.595 1.274 4.945c.59 2.284 2.65 3.878 5.01 3.878h6.065a5.18 5.18 0 0 0 5.011-3.88l1.274-4.943 4.397 2.596c2.034 1.197 4.617.866 6.284-.8l4.289-4.289c1.668-1.667 1.997-4.251.8-6.287l-2.595-4.396 4.945-1.274c2.283-.591 3.878-2.651 3.878-5.01v-6.065c0-2.359-1.595-4.419-3.878-5.01l-4.945-1.273 2.597-4.399c1.195-2.032.866-4.617-.802-6.284l-4.289-4.29c-1.667-1.666-4.253-1.996-6.286-.798l-4.396 2.595-1.275-4.946c-.591-2.283-2.651-3.877-5.01-3.877h-6.065c-2.359 0-4.419 1.595-5.01 3.88l-1.273 4.943-4.399-2.597c-2.033-1.196-4.617-.867-6.284.801l-4.289 4.289c-1.668 1.667-1.997 4.252-.799 6.287l2.594 4.396-4.946 1.274c-2.281.591-3.876 2.651-3.876 5.01zm5 0c0-.08.054-.15.128-.169l8.161-2.103a2.5 2.5 0 0 0 1.686-1.464c.301-.726.243-1.551-.157-2.227l-4.282-7.256c-.041-.068-.029-.156.027-.212l4.289-4.289c.056-.057.145-.066.21-.028l7.258 4.284a2.5 2.5 0 0 0 2.228.157c.726-.3 1.269-.925 1.464-1.686l2.103-8.16c.02-.077.089-.13.169-.13h6.065c.08 0 .149.054.169.128l2.104 8.162a2.5 2.5 0 0 0 1.464 1.686c.728.301 1.553.243 2.228-.157l7.256-4.283c.069-.04.156-.028.212.027l4.289 4.289c.057.057.067.145.028.21l-4.284 7.258a2.5 2.5 0 0 0 1.53 3.692l8.159 2.103c.077.02.131.09.131.169v6.065c0 .08-.054.149-.129.168l-8.161 2.103a2.5 2.5 0 0 0-1.53 3.692l4.283 7.254c.04.069.029.157-.027.213l-4.289 4.289c-.056.056-.143.068-.21.029l-7.258-4.284a2.5 2.5 0 0 0-3.692 1.529l-2.103 8.159c-.021.077-.09.131-.17.131h-6.065c-.08 0-.149-.054-.168-.128l-2.103-8.162a2.5 2.5 0 0 0-2.421-1.876c-.441 0-.881.117-1.271.347l-7.254 4.282c-.07.041-.157.029-.213-.026l-4.289-4.289c-.056-.057-.067-.144-.028-.21l4.284-7.258a2.5 2.5 0 0 0 .157-2.227c-.3-.726-.925-1.269-1.686-1.464l-8.158-2.102c-.077-.02-.131-.09-.131-.169v-6.067z"/></g><path d="M81.167 68.018c0-7.327-5.961-13.288-13.288-13.288s-13.288 5.961-13.288 13.288 5.961 13.288 13.288 13.288 13.288-5.962 13.288-13.288zm-25.075 0c0-6.5 5.288-11.788 11.788-11.788s11.788 5.288 11.788 11.788S74.38 79.805 67.88 79.805s-11.788-5.288-11.788-11.787zm21.575 0c0-5.397-4.391-9.788-9.788-9.788s-9.788 4.391-9.788 9.788 4.391 9.788 9.788 9.788 9.788-4.392 9.788-9.788zm-18.075 0a8.3 8.3 0 0 1 8.288-8.288 8.3 8.3 0 0 1 8.288 8.288 8.3 8.3 0 0 1-8.288 8.288 8.3 8.3 0 0 1-8.288-8.288zm137.271 0c0-5.397-4.391-9.788-9.787-9.788s-9.788 4.391-9.788 9.788 4.391 9.788 9.788 9.788 9.787-4.392 9.787-9.788zm-18.075 0a8.3 8.3 0 0 1 8.288-8.288 8.3 8.3 0 0 1 8.287 8.288 8.3 8.3 0 0 1-8.287 8.288 8.3 8.3 0 0 1-8.288-8.288zm21.575 0c0-7.327-5.961-13.288-13.287-13.288s-13.288 5.961-13.288 13.288 5.961 13.288 13.288 13.288 13.287-5.962 13.287-13.288zm-25.075 0c0-6.5 5.288-11.788 11.788-11.788s11.787 5.288 11.787 11.788-5.288 11.788-11.787 11.788-11.788-5.289-11.788-11.788zm-97.7 72.181c0-7.327-5.961-13.288-13.288-13.288s-13.288 5.961-13.288 13.288 5.961 13.288 13.288 13.288 13.288-5.962 13.288-13.288zm-25.075 0c0-6.5 5.288-11.788 11.788-11.788s11.788 5.288 11.788 11.788-5.288 11.788-11.788 11.788-11.788-5.289-11.788-11.788zm21.575 0c0-5.397-4.391-9.788-9.788-9.788s-9.788 4.391-9.788 9.788 4.391 9.788 9.788 9.788 9.788-4.391 9.788-9.788zm-18.075 0a8.3 8.3 0 0 1 8.288-8.288 8.3 8.3 0 0 1 8.288 8.288 8.3 8.3 0 0 1-8.288 8.288 8.3 8.3 0 0 1-8.288-8.288zm145.474 0c0-5.397-4.391-9.788-9.788-9.788s-9.788 4.391-9.788 9.788 4.391 9.788 9.788 9.788 9.788-4.391 9.788-9.788zm-18.076 0a8.3 8.3 0 0 1 8.288-8.288 8.3 8.3 0 0 1 8.288 8.288 8.3 8.3 0 0 1-8.288 8.288 8.3 8.3 0 0 1-8.288-8.288zm21.576 0c0-7.327-5.961-13.288-13.288-13.288s-13.288 5.961-13.288 13.288 5.961 13.288 13.288 13.288 13.288-5.962 13.288-13.288zm-25.076 0c0-6.5 5.288-11.788 11.788-11.788s11.788 5.288 11.788 11.788-5.288 11.788-11.788 11.788-11.788-5.289-11.788-11.788zM140.31 68.018c0-6.788-5.522-12.31-12.31-12.31s-12.31 5.522-12.31 12.31 5.522 12.31 12.31 12.31a12.33 12.33 0 0 0 12.31-12.31zm-23.12 0c0-5.961 4.849-10.81 10.81-10.81s10.81 4.849 10.81 10.81-4.849 10.81-10.81 10.81-10.81-4.85-10.81-10.81zm19.62 0c0-4.858-3.952-8.81-8.81-8.81s-8.81 3.952-8.81 8.81 3.952 8.81 8.81 8.81 8.81-3.953 8.81-8.81zm-16.12 0a7.32 7.32 0 0 1 7.31-7.31 7.32 7.32 0 0 1 7.31 7.31 7.32 7.32 0 0 1-7.31 7.31 7.32 7.32 0 0 1-7.31-7.31zm-19.249 4.654l8.159 2.102c.302.078.554.297.674.586a1 1 0 0 1-.063.89l-4.285 7.26a1.68 1.68 0 0 0 .261 2.032l4.303 4.303a1.67 1.67 0 0 0 1.171.476 1.69 1.69 0 0 0 .852-.232l7.255-4.282c.154-.091.329-.139.508-.139a.99.99 0 0 1 .383.077 1 1 0 0 1 .585.674l2.104 8.167c.192.735.858 1.249 1.62 1.249h6.065a1.68 1.68 0 0 0 1.622-1.257l2.102-8.158c.078-.303.297-.555.587-.675.122-.051.25-.076.382-.076.178 0 .353.048.508.139l7.268 4.29c.254.147.544.225.838.225.444 0 .877-.181 1.185-.491l4.289-4.289a1.68 1.68 0 0 0 .258-2.037l-4.283-7.254c-.159-.269-.182-.602-.062-.891s.372-.508.674-.586l8.164-2.104c.737-.192 1.252-.858 1.252-1.62v-6.065c0-.763-.516-1.43-1.257-1.622l-8.159-2.102c-.303-.078-.555-.297-.675-.586s-.096-.622.062-.891l4.28-7.251a1.67 1.67 0 0 0-.255-2.04l-4.299-4.298c-.315-.31-.732-.48-1.175-.48-.291 0-.579.076-.851.232l-7.258 4.284c-.152.09-.327.138-.505.138-.132 0-.261-.026-.385-.077-.288-.119-.507-.371-.585-.674l-2.105-8.169c-.193-.734-.859-1.246-1.62-1.246h-6.065c-.766 0-1.434.518-1.622 1.256l-2.103 8.16c-.078.302-.297.554-.586.674a1 1 0 0 1-.382.076c-.179 0-.354-.048-.508-.139l-7.266-4.289a1.67 1.67 0 0 0-.84-.226c-.444 0-.877.18-1.185.49l-4.294 4.294c-.537.542-.641 1.378-.253 2.031l4.282 7.256c.159.269.182.601.062.891a1 1 0 0 1-.674.585l-8.16 2.103c-.739.19-1.256.857-1.256 1.622v6.065c.004.76.52 1.427 1.261 1.619zm.243-7.687c0-.08.054-.15.128-.169l8.161-2.103a2.5 2.5 0 0 0 1.686-1.464c.301-.726.243-1.551-.157-2.227l-4.282-7.256c-.041-.068-.029-.156.027-.212l4.289-4.289c.034-.034.079-.051.124-.051.03 0 .06.008.086.023l7.258 4.284a2.5 2.5 0 0 0 1.271.347 2.51 2.51 0 0 0 .957-.19c.726-.3 1.269-.925 1.464-1.686l2.103-8.16c.02-.077.089-.13.169-.13h6.065c.08 0 .149.054.169.128l2.104 8.162a2.5 2.5 0 0 0 1.464 1.686c.308.128.634.191.958.191.441 0 .88-.117 1.269-.347l7.256-4.283c.028-.016.058-.023.088-.023.045 0 .09.017.124.05l4.289 4.289c.057.057.067.145.028.21l-4.284 7.258a2.5 2.5 0 0 0 1.53 3.692l8.159 2.103c.077.02.131.09.131.169v6.065c0 .08-.054.149-.129.168l-8.161 2.103a2.5 2.5 0 0 0-1.53 3.692l4.283 7.254c.04.069.029.157-.027.213l-4.289 4.289c-.034.034-.079.052-.124.052-.03 0-.059-.008-.086-.023l-7.258-4.284a2.49 2.49 0 0 0-1.27-.348c-.325 0-.65.063-.958.191a2.5 2.5 0 0 0-1.464 1.686l-2.103 8.159c-.021.077-.09.131-.17.131h-6.065c-.08 0-.149-.054-.168-.128l-2.103-8.162a2.5 2.5 0 0 0-2.421-1.876c-.441 0-.881.117-1.271.347l-7.254 4.282a.18.18 0 0 1-.089.024c-.045 0-.09-.017-.124-.051l-4.289-4.289c-.056-.057-.067-.144-.028-.21l4.284-7.258a2.5 2.5 0 0 0 .157-2.227c-.3-.726-.925-1.269-1.686-1.464l-8.158-2.102c-.077-.02-.131-.09-.131-.169v-6.067zm-5 0v6.065c0 2.358 1.595 4.418 3.88 5.01l4.943 1.273-2.596 4.398c-1.197 2.033-.868 4.617.8 6.285L108 92.305a5.17 5.17 0 0 0 6.287.799l4.396-2.595 1.274 4.945c.59 2.284 2.65 3.878 5.01 3.878h6.065a5.18 5.18 0 0 0 5.011-3.88l1.274-4.943 4.397 2.596c.817.481 1.724.715 2.623.715a5.17 5.17 0 0 0 3.661-1.516l4.289-4.289c1.668-1.667 1.997-4.251.8-6.287l-2.595-4.396 4.945-1.274c2.283-.591 3.878-2.651 3.878-5.01v-6.065c0-2.359-1.595-4.419-3.878-5.01l-4.945-1.273 2.597-4.399c1.195-2.032.866-4.617-.802-6.284l-4.289-4.29c-.997-.996-2.322-1.515-3.661-1.515-.901 0-1.808.234-2.625.716l-4.396 2.595-1.275-4.946c-.591-2.283-2.651-3.877-5.01-3.877h-6.065c-2.359 0-4.419 1.595-5.01 3.88l-1.273 4.943-4.399-2.597a5.16 5.16 0 0 0-2.623-.715A5.17 5.17 0 0 0 108 43.727l-4.289 4.289c-1.668 1.667-1.997 4.252-.799 6.287l2.594 4.396-4.946 1.274a5.18 5.18 0 0 0-3.876 5.012zm9.198-4.832c.456-.118.831-.443 1.012-.878a1.5 1.5 0 0 0-.094-1.336l-2.594-4.395c-.851-1.445-.618-3.28.567-4.465l4.289-4.289a3.65 3.65 0 0 1 2.599-1.076c.654 0 1.298.176 1.861.507l4.399 2.597a1.5 1.5 0 0 0 .763.208c.194 0 .39-.038.574-.114a1.5 1.5 0 0 0 .879-1.012l1.273-4.942c.42-1.622 1.883-2.756 3.558-2.756h6.065c1.675 0 3.138 1.132 3.557 2.751l1.275 4.946a1.5 1.5 0 0 0 .879 1.011c.184.076.379.114.574.114a1.5 1.5 0 0 0 .763-.208l4.394-2.594c.565-.333 1.209-.509 1.864-.509.983 0 1.906.382 2.6 1.075l4.289 4.29c1.184 1.184 1.418 3.018.57 4.46l-2.597 4.399a1.5 1.5 0 0 0 .918 2.215l4.942 1.273c.007.002.014.004.022.005 1.611.427 2.733 1.885 2.733 3.553v6.065c0 1.675-1.133 3.138-2.752 3.557l-4.945 1.274a1.5 1.5 0 0 0-.918 2.216l2.594 4.393c.85 1.446.617 3.282-.568 4.466l-4.289 4.289c-.694.694-1.618 1.076-2.6 1.076-.654 0-1.298-.176-1.861-.507l-4.397-2.596a1.5 1.5 0 0 0-.763-.208 1.51 1.51 0 0 0-.574.114 1.5 1.5 0 0 0-.879 1.011l-1.274 4.942c-.42 1.623-1.884 2.756-3.559 2.756h-6.065c-1.675 0-3.138-1.132-3.557-2.753l-1.274-4.945a1.5 1.5 0 0 0-.879-1.012c-.184-.076-.379-.114-.574-.114a1.5 1.5 0 0 0-.763.208l-4.394 2.594c-.566.333-1.211.51-1.866.51a3.65 3.65 0 0 1-2.6-1.077l-4.289-4.289c-1.184-1.184-1.418-3.019-.569-4.461l2.596-4.398a1.5 1.5 0 0 0 .094-1.337c-.18-.436-.555-.761-1.012-.878l-4.941-1.273a3.68 3.68 0 0 1-2.757-3.558v-6.065c0-1.675 1.132-3.138 2.752-3.557l4.949-1.273z" fill="#149cb2"/><g fill="#ed9abc"><path d="M143.437 183.468a2.5 2.5 0 0 0 1.534 3.186 2.48 2.48 0 0 0 .825.141 2.5 2.5 0 0 0 2.359-1.675l9.885-28.256a10.22 10.22 0 0 0-.822-8.656l-20.325-34.474c-.731-1.268-1.715-2.357-2.987-3.282-3.533-2.405-8.277-2.405-11.874.045-1.208.879-2.192 1.967-2.913 3.216l-20.327 34.479c-1.554 2.589-1.865 5.832-.842 8.643l9.887 28.267a2.5 2.5 0 1 0 4.72-1.65l-9.897-28.296a5.19 5.19 0 0 1 .43-4.408l20.348-34.515a5.38 5.38 0 0 1 1.472-1.647c1.85-1.259 4.333-1.258 6.118-.045a5.5 5.5 0 0 1 1.546 1.712l20.348 34.511c.786 1.312.943 2.953.41 4.42l-9.895 28.284z"/><path d="M155.984 199.499c4.816 0 8.735-3.918 8.735-8.735a8.75 8.75 0 0 0-8.735-8.736h-55.969a8.75 8.75 0 0 0-8.736 8.736 8.75 8.75 0 0 0 8.736 8.735h55.969zm-59.704-8.736a3.74 3.74 0 0 1 3.736-3.736h55.969a3.74 3.74 0 0 1 3.735 3.736 3.74 3.74 0 0 1-3.735 3.735h-55.969a3.74 3.74 0 0 1-3.736-3.735z"/><path d="M107.078 216.798V198.54a2.5 2.5 0 1 0-5 0v18.259a2.5 2.5 0 1 0 5-.001zm46.844 0V198.54a2.5 2.5 0 1 0-5 0v18.259a2.5 2.5 0 1 0 5-.001zM130.5 145.37v-32.689a2.5 2.5 0 1 0-5 0v32.689a2.5 2.5 0 1 0 5 0z"/></g><g fill="#e54890"><path d="M112.059 183.527h31.881a1.5 1.5 0 0 0 1.416-1.005l9.384-26.827c.682-1.877.483-4.009-.528-5.695l-20.341-34.499c-.493-.854-1.153-1.586-2.002-2.203-.244-.166-.486-.291-.682-.392-.216-.112-.453-.167-.689-.167-.271 0-.541.073-.78.219a1.5 1.5 0 0 0-.72 1.281v31.131a1 1 0 1 1-2 0v-31.124a1.5 1.5 0 0 0-1.5-1.5 1.49 1.49 0 0 0-.681.164c-.236.12-.491.257-.794.463-.756.552-1.409 1.282-1.879 2.097l-20.342 34.505c-1.023 1.705-1.23 3.833-.56 5.675l9.4 26.873c.212.601.78 1.004 1.417 1.004zm-8.969-32.78l20.348-34.515a5.38 5.38 0 0 1 1.472-1.647 5.25 5.25 0 0 1 .59-.338v31.124a2.5 2.5 0 1 0 5 0V114.24l.527.3a5.5 5.5 0 0 1 1.546 1.712l20.348 34.511c.786 1.312.943 2.953.41 4.42l-9.391 26.844h-31.881l-9.4-26.873c-.523-1.439-.366-3.08.431-4.407zm-8.31 40.016c0 2.887 2.349 5.235 5.236 5.235h55.969c2.887 0 5.235-2.349 5.235-5.235s-2.349-5.236-5.235-5.236h-55.969c-2.887 0-5.236 2.349-5.236 5.236zm64.94 0a3.74 3.74 0 0 1-3.735 3.735h-55.969a3.74 3.74 0 0 1-3.736-3.735 3.74 3.74 0 0 1 3.736-3.736h55.969a3.74 3.74 0 0 1 3.735 3.736z"/><path d="M91.28 190.763a8.75 8.75 0 0 0 8.736 8.735h2.063v17.3a2.5 2.5 0 1 0 5 0v-17.3h41.844v17.3a2.5 2.5 0 1 0 5 0v-17.3h2.063c4.816 0 8.735-3.918 8.735-8.735a8.75 8.75 0 0 0-8.735-8.736h-6.747l8.803-25.164a10.22 10.22 0 0 0-.822-8.656l-20.325-34.474c-.731-1.268-1.715-2.357-2.987-3.282-1.758-1.197-3.817-1.798-5.885-1.798a10.63 10.63 0 0 0-5.989 1.843c-1.208.879-2.192 1.967-2.913 3.216l-20.327 34.479c-1.554 2.589-1.865 5.832-.842 8.643l8.812 25.193h-6.747a8.75 8.75 0 0 0-8.737 8.736zm16.706-7.868a1.5 1.5 0 0 0 .193-1.363l-8.818-25.211c-.873-2.402-.605-5.153.725-7.369l20.334-34.49c.619-1.072 1.458-1.998 2.458-2.726 1.52-1.036 3.299-1.583 5.144-1.583 1.819 0 3.562.532 5.003 1.512 1.094.794 1.934 1.716 2.577 2.83l20.331 34.484c1.317 2.196 1.578 4.952.693 7.389l-8.803 25.164a1.5 1.5 0 0 0 1.416 1.995h6.747c3.99 0 7.235 3.246 7.235 7.236s-3.246 7.235-7.235 7.235h-2.063a1.5 1.5 0 0 0-1.5 1.5v17.3a1 1 0 1 1-2 0v-17.3a1.5 1.5 0 0 0-1.5-1.5h-41.844a1.5 1.5 0 0 0-1.5 1.5v17.3a1 1 0 1 1-2 0v-17.3a1.5 1.5 0 0 0-1.5-1.5h-2.063c-3.99 0-7.236-3.246-7.236-7.235s3.246-7.236 7.236-7.236h6.747a1.5 1.5 0 0 0 1.223-.632z"/></g><path d="M138.462 153.333c0-5.769-4.693-10.462-10.462-10.462s-10.462 4.693-10.462 10.462 4.693 10.462 10.462 10.462 10.462-4.693 10.462-10.462zm-15.924 0a5.47 5.47 0 0 1 5.462-5.462 5.47 5.47 0 0 1 5.462 5.462 5.47 5.47 0 0 1-5.462 5.462 5.47 5.47 0 0 1-5.462-5.462z" fill="#d3d3d3"/><path d="M138.462 153.333c0-5.769-4.693-10.462-10.462-10.462s-10.462 4.693-10.462 10.462 4.693 10.462 10.462 10.462 10.462-4.693 10.462-10.462zm-19.424 0c0-4.942 4.021-8.962 8.962-8.962s8.962 4.021 8.962 8.962-4.02 8.962-8.962 8.962-8.962-4.021-8.962-8.962zm15.924 0a6.97 6.97 0 0 0-6.962-6.962 6.97 6.97 0 0 0-6.962 6.962 6.97 6.97 0 0 0 6.962 6.962 6.97 6.97 0 0 0 6.962-6.962zm-12.424 0a5.47 5.47 0 0 1 5.462-5.462 5.47 5.47 0 0 1 5.462 5.462 5.47 5.47 0 0 1-5.462 5.462 5.47 5.47 0 0 1-5.462-5.462z" fill="#ebe7f2"/><defs ><path id="B" d="M81.167 68.018c0-7.327-5.961-13.288-13.288-13.288s-13.288 5.961-13.288 13.288 5.961 13.288 13.288 13.288 13.288-5.962 13.288-13.288zm-21.575 0a8.3 8.3 0 0 1 8.288-8.288 8.3 8.3 0 0 1 8.288 8.288 8.3 8.3 0 0 1-8.288 8.288 8.3 8.3 0 0 1-8.288-8.288z"/></defs></svg>
