<svg xmlns="http://www.w3.org/2000/svg" viewBox="0 0 256 256"><circle transform="matrix(.7071 -.7071 .7071 .7071 -53.0193 128)" cx="128" cy="128" r="119.4" fill="#382b73"/><path d="M56.531 68.521h33.813a2.5 2.5 0 1 0 0-5H56.531a6.12 6.12 0 0 0-6.109 6.109v103.445c0 3.369 2.74 6.109 6.109 6.109h142.938a6.12 6.12 0 0 0 6.109-6.109V69.63c0-3.369-2.74-6.109-6.109-6.109h-33.813a2.5 2.5 0 0 0 0 5h33.813a1.11 1.11 0 0 1 1.109 1.109v103.445a1.11 1.11 0 0 1-1.109 1.109H56.531a1.11 1.11 0 0 1-1.109-1.109V69.63a1.11 1.11 0 0 1 1.109-1.109zM96.512 81.48a2.5 2.5 0 1 0 0-5H66.021a2.5 2.5 0 0 0-2.5 2.5v77.189a2.5 2.5 0 0 0 2.5 2.5H189.98a2.5 2.5 0 0 0 2.5-2.5V78.98a2.5 2.5 0 0 0-2.5-2.5h-30.807a2.5 2.5 0 1 0 0 5h28.307v72.189h-16.834v-44.227a2.5 2.5 0 0 0-2.5-2.5H87.854a2.5 2.5 0 0 0-2.5 2.5v44.227H68.521V81.48h27.991zm49.425 30.462h19.709v8.454h-19.709v-8.454zm0 13.454h19.709v28.272h-19.709v-28.272zm-55.583-13.454h50.582v8.454H90.354v-8.454zm0 13.454h50.582v28.272H90.354v-28.272zm25.925 59.931a2.5 2.5 0 0 0-2.344-2.647 2.49 2.49 0 0 0-2.646 2.344c-.322 5.281-3.792 10.083-10.585 14.664h-7.958a7.84 7.84 0 0 0-7.829 7.829 7.84 7.84 0 0 0 7.829 7.829h70.508a7.84 7.84 0 0 0 7.829-7.829 7.84 7.84 0 0 0-7.829-7.829h-7.958c-6.792-4.581-10.264-9.382-10.586-14.664-.083-1.378-1.256-2.422-2.647-2.344a2.5 2.5 0 0 0-2.343 2.647c.319 5.24 2.782 9.98 7.489 14.36h-38.417c4.706-4.38 7.169-9.12 7.487-14.36zm46.975 19.36c1.56 0 2.829 1.269 2.829 2.829s-1.27 2.829-2.829 2.829H92.746c-1.56 0-2.829-1.269-2.829-2.829s1.27-2.829 2.829-2.829h70.508zM97.844 63.11v5.821a5.07 5.07 0 0 0 3.8 4.907l4.614 1.189-2.423 4.105c-1.172 1.99-.85 4.521.783 6.154l4.116 4.116c1.631 1.633 4.161 1.955 6.156.782l4.104-2.422 1.19 4.616c.578 2.236 2.595 3.798 4.904 3.798h5.821c2.311 0 4.327-1.562 4.906-3.8l1.189-4.614 4.106 2.424a5.07 5.07 0 0 0 6.153-.784l4.117-4.117a5.07 5.07 0 0 0 .781-6.156l-2.422-4.103 4.617-1.19a5.07 5.07 0 0 0 3.797-4.906v-5.82a5.07 5.07 0 0 0-3.797-4.906l-4.617-1.19 2.423-4.105c1.172-1.99.85-4.52-.783-6.154l-4.117-4.118a5.07 5.07 0 0 0-6.155-.781l-4.104 2.422-1.19-4.616c-.578-2.236-2.595-3.798-4.905-3.798h-5.821c-2.31 0-4.326 1.562-4.905 3.8l-1.189 4.614-4.106-2.424a5.07 5.07 0 0 0-6.153.784l-4.117 4.117a5.07 5.07 0 0 0-.781 6.155l2.422 4.104-4.617 1.19c-2.236.579-3.797 2.596-3.797 4.906zm5.048-.065l7.833-2.018a2.5 2.5 0 0 0 1.53-3.691l-4.101-7.045 4.196-4.128 6.966 4.111c.676.399 1.5.457 2.228.157a2.5 2.5 0 0 0 1.464-1.686l2.082-7.88 5.886.048 2.019 7.833a2.5 2.5 0 0 0 1.464 1.686c.727.301 1.553.244 2.228-.157l7.046-4.1 4.127 4.196-4.111 6.966a2.5 2.5 0 0 0-.156 2.227c.301.726.925 1.269 1.686 1.464l7.881 2.083-.048 5.886-7.833 2.018a2.5 2.5 0 0 0-1.53 3.692l4.101 7.045-4.196 4.128-6.966-4.111a2.5 2.5 0 0 0-3.692 1.529l-2.083 7.88-5.885-.048-2.019-7.833a2.5 2.5 0 0 0-1.464-1.686 2.51 2.51 0 0 0-.957-.19c-.441 0-.881.117-1.271.347l-7.046 4.1-4.127-4.196 4.111-6.965a2.5 2.5 0 0 0 .156-2.228c-.301-.726-.925-1.269-1.686-1.464l-7.881-2.083.048-5.887zm36.531 2.976A11.44 11.44 0 0 0 128 54.598a11.44 11.44 0 0 0-11.423 11.423A11.44 11.44 0 0 0 128 77.444a11.44 11.44 0 0 0 11.423-11.423zm-17.846 0A6.43 6.43 0 0 1 128 59.598a6.43 6.43 0 0 1 6.423 6.423A6.43 6.43 0 0 1 128 72.444c-3.542 0-6.423-2.882-6.423-6.423z" fill="#291b4a"/><g fill="#65c1d6"><path d="M168.146 154.669a2.5 2.5 0 0 0 2.5-2.5v-46.727a2.5 2.5 0 0 0-2.5-2.5H87.854a2.5 2.5 0 0 0-2.5 2.5v46.727a2.5 2.5 0 1 0 5 0v-44.227h75.291v44.227a2.5 2.5 0 0 0 2.501 2.5z"/><path d="M168.146 121.396a2.5 2.5 0 1 0 0-5H87.854a2.5 2.5 0 1 0 0 5h80.292z"/><path d="M145.937 152.169v-46.727a2.5 2.5 0 1 0-5 0v46.727a2.5 2.5 0 1 0 5 0z"/></g><path d="M167.146 116.396v-8.454a1.5 1.5 0 0 0-1.5-1.5h-19.709a1.5 1.5 0 0 0-1.5 1.5v8.454a1.5 1.5 0 0 0 1.5 1.5h19.709a1.5 1.5 0 0 0 1.5-1.5zm-21.209-8.454h19.709v8.454h-19.709v-8.454zm22.209 46.727a2.5 2.5 0 0 0 2.5-2.5v-46.727a2.5 2.5 0 0 0-2.5-2.5H87.854a2.5 2.5 0 0 0-2.5 2.5v46.727a2.5 2.5 0 1 0 5 0v-30.772h50.582v30.772a2.5 2.5 0 1 0 5 0v-30.772h19.709v30.772a2.5 2.5 0 0 0 2.501 2.5zm-22.209-34.773a1.5 1.5 0 0 0-1.5 1.5v30.772a1 1 0 1 1-2 0v-30.772a1.5 1.5 0 0 0-1.5-1.5H90.354a1.5 1.5 0 0 0-1.5 1.5v30.772a1 1 0 1 1-2 0v-46.727a1 1 0 0 1 1-1h80.291a1 1 0 0 1 1 1v46.727a1 1 0 1 1-2 0v-30.772a1.5 1.5 0 0 0-1.5-1.5h-19.708zm-5-13.454H90.354a1.5 1.5 0 0 0-1.5 1.5v8.454a1.5 1.5 0 0 0 1.5 1.5h50.582a1.5 1.5 0 0 0 1.5-1.5v-8.454a1.5 1.5 0 0 0-1.499-1.5zm0 9.954H90.354v-8.454h50.582v8.454z" fill="#149cb2"/><g fill="#ed9abc"><path d="M116.279 181.327a2.5 2.5 0 0 0-2.344-2.647c-1.398-.089-2.563.966-2.646 2.344-.331 5.438-3.99 10.368-11.188 15.071a2.5 2.5 0 0 0 1.368 4.593h53.061a2.5 2.5 0 0 0 2.396-1.787c.315-1.06-.104-2.201-1.028-2.806-7.197-4.704-10.857-9.633-11.188-15.071a2.49 2.49 0 0 0-2.647-2.344 2.5 2.5 0 0 0-2.343 2.647c.319 5.24 2.782 9.98 7.489 14.36h-38.418c4.707-4.379 7.17-9.12 7.488-14.36zM56.531 64.521h33.813a2.5 2.5 0 1 0 0-5H56.531a6.12 6.12 0 0 0-6.109 6.109v103.445c0 3.369 2.74 6.109 6.109 6.109h142.938a6.12 6.12 0 0 0 6.109-6.109V65.63c0-3.369-2.74-6.109-6.109-6.109h-33.813a2.5 2.5 0 0 0 0 5h33.813a1.11 1.11 0 0 1 1.109 1.109v103.445a1.11 1.11 0 0 1-1.109 1.109H56.531a1.11 1.11 0 0 1-1.109-1.109V65.63a1.11 1.11 0 0 1 1.109-1.109zM96.512 77.48a2.5 2.5 0 1 0 0-5H66.021a2.5 2.5 0 0 0-2.5 2.5v77.189a2.5 2.5 0 0 0 2.5 2.5H189.98a2.5 2.5 0 0 0 2.5-2.5V74.98a2.5 2.5 0 0 0-2.5-2.5h-30.807a2.5 2.5 0 1 0 0 5h28.307v72.189H68.521V77.48h27.991z"/><path d="M163.254 211.345a7.84 7.84 0 0 0 7.829-7.829 7.84 7.84 0 0 0-7.829-7.829H92.746a7.84 7.84 0 0 0-7.829 7.829 7.84 7.84 0 0 0 7.829 7.829h70.508zm-73.337-7.829c0-1.56 1.27-2.829 2.829-2.829h70.508c1.56 0 2.829 1.269 2.829 2.829s-1.27 2.829-2.829 2.829H92.746c-1.559 0-2.829-1.269-2.829-2.829z"/></g><g fill="#e54890"><path d="M56.531 64.521h33.813a2.5 2.5 0 1 0 0-5H56.531a6.12 6.12 0 0 0-6.109 6.109v103.445c0 3.369 2.74 6.109 6.109 6.109h142.938a6.12 6.12 0 0 0 6.109-6.109V65.63c0-3.369-2.74-6.109-6.109-6.109h-33.813a2.5 2.5 0 0 0 0 5h33.813a1.11 1.11 0 0 1 1.109 1.109v103.445a1.11 1.11 0 0 1-1.109 1.109H56.531a1.11 1.11 0 0 1-1.109-1.109V65.63a1.11 1.11 0 0 1 1.109-1.109zm0 107.164h142.938c1.439 0 2.609-1.171 2.609-2.609V65.63c0-1.439-1.171-2.609-2.609-2.609h-33.813a1 1 0 1 1 0-2h33.813c2.542 0 4.609 2.068 4.609 4.609v103.445c0 2.542-2.068 4.609-4.609 4.609H56.531c-2.542 0-4.609-2.068-4.609-4.609V65.63c0-2.542 2.068-4.609 4.609-4.609h33.813a1 1 0 1 1 0 2H56.531c-1.439 0-2.609 1.171-2.609 2.609v103.445c0 1.439 1.17 2.61 2.609 2.61zM96.512 77.48a2.5 2.5 0 1 0 0-5H66.021a2.5 2.5 0 0 0-2.5 2.5v77.189a2.5 2.5 0 0 0 2.5 2.5H189.98a2.5 2.5 0 0 0 2.5-2.5V74.98a2.5 2.5 0 0 0-2.5-2.5h-30.807a2.5 2.5 0 1 0 0 5h28.307v72.189H68.521V77.48h27.991zm-27.991 73.689H187.48a1.5 1.5 0 0 0 1.5-1.5V77.48a1.5 1.5 0 0 0-1.5-1.5h-28.307a1 1 0 1 1 0-2h30.807a1 1 0 0 1 1 1v77.189a1 1 0 0 1-1 1H66.021a1 1 0 0 1-1-1V74.98a1 1 0 0 1 1-1h30.491a1 1 0 1 1 0 2H68.521a1.5 1.5 0 0 0-1.5 1.5v72.189a1.5 1.5 0 0 0 1.5 1.5zm24.225 48.018c-2.387 0-4.329 1.942-4.329 4.329s1.942 4.329 4.329 4.329h70.508c2.387 0 4.329-1.942 4.329-4.329s-1.942-4.329-4.329-4.329H92.746zm70.508 1.5c1.56 0 2.829 1.269 2.829 2.829s-1.27 2.829-2.829 2.829H92.746c-1.56 0-2.829-1.269-2.829-2.829s1.27-2.829 2.829-2.829h70.508z"/><path d="M116.279 181.327a2.5 2.5 0 0 0-2.344-2.647l-.164-.005c-1.324 0-2.403 1.025-2.482 2.349-.322 5.281-3.792 10.083-10.585 14.664h-7.958a7.84 7.84 0 0 0-7.829 7.829 7.84 7.84 0 0 0 7.829 7.829h70.508a7.84 7.84 0 0 0 7.829-7.829 7.84 7.84 0 0 0-7.829-7.829h-7.958c-6.792-4.581-10.264-9.382-10.586-14.664a2.49 2.49 0 0 0-2.488-2.349 2.88 2.88 0 0 0-.16.005 2.5 2.5 0 0 0-2.343 2.647c.319 5.24 2.782 9.98 7.489 14.36h-38.417c4.707-4.38 7.17-9.12 7.488-14.36zm-8.509 13.262a1.5 1.5 0 0 0 1.022 2.598h38.417a1.5 1.5 0 0 0 1.022-2.598c-4.422-4.115-6.717-8.483-7.013-13.353-.016-.267.072-.524.249-.724a.99.99 0 0 1 .689-.335l.067-.002c.532 0 .958.404.991.94.352 5.777 4.03 10.95 11.244 15.816a1.5 1.5 0 0 0 .839.256h7.958a6.34 6.34 0 0 1 6.329 6.329 6.34 6.34 0 0 1-6.329 6.329H92.746a6.34 6.34 0 0 1-6.329-6.329 6.34 6.34 0 0 1 6.329-6.329h7.958a1.5 1.5 0 0 0 .839-.256c7.214-4.865 10.891-10.039 11.243-15.817a.98.98 0 0 1 .985-.939l.073.002a.99.99 0 0 1 .937 1.059c-.295 4.87-2.589 9.237-7.011 13.353z"/></g><path d="M97.844 59.11v5.821a5.07 5.07 0 0 0 3.8 4.907l4.614 1.189-2.423 4.105c-1.172 1.99-.85 4.521.783 6.154l4.116 4.116a5.07 5.07 0 0 0 6.156.782l4.104-2.422 1.19 4.616c.578 2.236 2.595 3.798 4.904 3.798h5.821c2.311 0 4.327-1.562 4.906-3.8l1.189-4.614 4.106 2.424a5.07 5.07 0 0 0 6.153-.784l4.117-4.117a5.07 5.07 0 0 0 .781-6.156l-2.422-4.103 4.617-1.19a5.07 5.07 0 0 0 3.797-4.906v-5.82a5.07 5.07 0 0 0-3.797-4.906l-4.617-1.19 2.423-4.105c1.172-1.99.85-4.52-.783-6.154l-4.117-4.118a5.07 5.07 0 0 0-6.155-.781l-4.104 2.422-1.19-4.616c-.578-2.236-2.595-3.798-4.905-3.798h-5.821c-2.31 0-4.326 1.562-4.905 3.8l-1.189 4.614-4.106-2.424c-1.993-1.171-4.522-.849-6.153.784l-4.117 4.117a5.07 5.07 0 0 0-.781 6.155l2.422 4.104-4.617 1.19c-2.236.579-3.797 2.596-3.797 4.906zm5.048-.065l7.833-2.018a2.5 2.5 0 0 0 1.53-3.691l-4.101-7.045 4.196-4.128 6.966 4.111c.676.399 1.5.457 2.228.157a2.5 2.5 0 0 0 1.464-1.686l2.082-7.88 5.886.048 2.019 7.833a2.5 2.5 0 0 0 1.464 1.686c.727.301 1.553.244 2.228-.157l7.046-4.1 4.127 4.196-4.111 6.966a2.5 2.5 0 0 0-.156 2.227c.301.726.925 1.269 1.686 1.464l7.881 2.083-.048 5.886-7.833 2.018a2.5 2.5 0 0 0-1.53 3.692l4.101 7.045-4.196 4.128-6.966-4.111a2.5 2.5 0 0 0-3.692 1.529l-2.083 7.88-5.885-.048-2.019-7.833a2.5 2.5 0 0 0-1.464-1.686 2.51 2.51 0 0 0-.957-.19c-.441 0-.881.117-1.271.347l-7.046 4.1-4.127-4.196 4.111-6.965a2.5 2.5 0 0 0 .156-2.228c-.301-.726-.925-1.269-1.686-1.464l-7.881-2.083.048-5.887z" fill="#65c1d6"/><path d="M97.844 59.11v5.821a5.07 5.07 0 0 0 3.8 4.907l4.614 1.189-2.423 4.105c-1.172 1.99-.85 4.521.783 6.154l4.116 4.116c.975.976 2.271 1.484 3.583 1.484.882 0 1.771-.23 2.573-.701l4.104-2.422 1.19 4.616c.578 2.236 2.595 3.798 4.904 3.798h5.821c2.311 0 4.327-1.562 4.906-3.8l1.189-4.614 4.106 2.424a5.05 5.05 0 0 0 2.567.7 5.07 5.07 0 0 0 3.586-1.484l4.117-4.117a5.07 5.07 0 0 0 .781-6.156l-2.422-4.103 4.617-1.19a5.07 5.07 0 0 0 3.797-4.906V59.11a5.07 5.07 0 0 0-3.797-4.906l-4.617-1.19 2.423-4.105c1.172-1.99.85-4.52-.783-6.154l-4.117-4.118a5.06 5.06 0 0 0-3.583-1.482c-.882 0-1.771.23-2.573.701l-4.104 2.422-1.19-4.616c-.578-2.236-2.595-3.798-4.905-3.798h-5.821c-2.31 0-4.326 1.562-4.905 3.8l-1.189 4.614-4.106-2.424a5.06 5.06 0 0 0-6.153.784l-4.117 4.117a5.07 5.07 0 0 0-.781 6.155l2.422 4.104-4.617 1.19a5.07 5.07 0 0 0-3.796 4.906zm55.312 0l-.048 5.886-7.833 2.018a2.5 2.5 0 0 0-1.53 3.692l4.101 7.045-4.196 4.128-6.966-4.111a2.49 2.49 0 0 0-2.227-.157 2.5 2.5 0 0 0-1.464 1.686l-2.083 7.88-5.885-.048-2.019-7.833a2.5 2.5 0 0 0-1.464-1.686 2.51 2.51 0 0 0-.957-.19c-.441 0-.881.117-1.271.347l-7.046 4.1-4.127-4.196 4.111-6.965a2.5 2.5 0 0 0 .156-2.228c-.301-.726-.925-1.269-1.686-1.464l-7.881-2.083.048-5.886 7.833-2.018a2.5 2.5 0 0 0 1.53-3.691l-4.101-7.045 4.196-4.128 6.966 4.111c.39.23.828.347 1.27.347.324 0 .65-.063.958-.19a2.5 2.5 0 0 0 1.464-1.686l2.082-7.88 5.886.048 2.019 7.833a2.5 2.5 0 0 0 1.464 1.686c.308.128.634.191.958.191.441 0 .88-.117 1.269-.348l7.046-4.1 4.127 4.196-4.111 6.966a2.5 2.5 0 0 0-.156 2.227c.301.726.925 1.269 1.686 1.464l7.881 2.082zm-46.524-4.643a1.5 1.5 0 0 0 .917-2.215l-2.421-4.102a3.57 3.57 0 0 1 .549-4.333l4.118-4.117a3.54 3.54 0 0 1 2.522-1.044 3.58 3.58 0 0 1 1.808.492l4.106 2.424a1.5 1.5 0 0 0 .763.208c.194 0 .39-.038.574-.114a1.5 1.5 0 0 0 .879-1.011l1.189-4.613a3.57 3.57 0 0 1 3.453-2.676h5.821c1.626 0 3.046 1.099 3.453 2.672l1.19 4.616a1.5 1.5 0 0 0 .879 1.011c.184.076.38.114.574.114.265 0 .528-.07.763-.208l4.101-2.421c.55-.323 1.177-.494 1.813-.494.953 0 1.849.37 2.522 1.042l4.117 4.117c1.15 1.15 1.377 2.932.552 4.331l-2.423 4.105a1.5 1.5 0 0 0 .917 2.214l3.531.91a1.49 1.49 0 0 0-.619.873l-.25.969-6.381-1.644c-.302-.078-.554-.297-.674-.586s-.096-.621.062-.89l4.111-6.966a1.5 1.5 0 0 0-.222-1.814l-4.127-4.196a1.5 1.5 0 0 0-1.07-.448c-.258 0-.519.067-.754.203l-7.057 4.106a.99.99 0 0 1-.504.138c-.132 0-.261-.026-.385-.077-.288-.119-.507-.371-.585-.674l-2.019-7.833a1.5 1.5 0 0 0-1.44-1.126l-5.886-.048c-.692 0-1.288.458-1.462 1.117l-2.084 7.889c-.078.303-.297.555-.584.674-.123.051-.253.077-.386.077-.178 0-.353-.048-.507-.139l-6.966-4.111c-.237-.14-.5-.208-.762-.208-.384 0-.764.147-1.052.431L107.1 45.22a1.5 1.5 0 0 0-.245 1.824l4.105 7.054a1 1 0 0 1 .062.89c-.12.289-.372.508-.674.586l-7.833 2.018a1.5 1.5 0 0 0-1.126 1.44l-.048 5.886a1.5 1.5 0 0 0 1.117 1.462l7.89 2.085c.302.078.554.297.674.586s.096.622-.062.891l-4.111 6.965a1.5 1.5 0 0 0 .222 1.814l4.127 4.196a1.5 1.5 0 0 0 1.07.448c.258 0 .519-.067.754-.203l7.055-4.105a1 1 0 0 1 .507-.138c.132 0 .261.026.383.076.288.119.507.371.585.674l2.019 7.833a1.5 1.5 0 0 0 1.44 1.126l5.885.048c.692 0 1.288-.458 1.462-1.117l2.085-7.889c.078-.303.297-.555.587-.675a.98.98 0 0 1 .381-.076c.178 0 .353.048.508.14l6.966 4.111c.237.14.5.208.762.208.384 0 .764-.147 1.052-.431l4.196-4.128a1.5 1.5 0 0 0 .245-1.824l-4.105-7.053c-.159-.269-.182-.602-.062-.891s.372-.508.674-.586l7.833-2.018a1.5 1.5 0 0 0 1.126-1.44l.047-5.72.539-2.325c.059-.255.049-.511-.017-.746.909.656 1.48 1.721 1.48 2.893v5.821c0 1.626-1.099 3.046-2.671 3.453l-4.617 1.19a1.5 1.5 0 0 0-.917 2.216l2.421 4.101a3.57 3.57 0 0 1-.549 4.335l-4.117 4.116a3.55 3.55 0 0 1-2.526 1.045 3.56 3.56 0 0 1-1.805-.492l-4.106-2.424a1.5 1.5 0 0 0-.763-.208c-.194 0-.39.038-.574.114a1.5 1.5 0 0 0-.879 1.011L134.363 88a3.57 3.57 0 0 1-3.454 2.676h-5.821c-1.626 0-3.045-1.099-3.452-2.672l-1.19-4.616a1.5 1.5 0 0 0-.879-1.011c-.184-.076-.38-.114-.574-.114-.265 0-.528.07-.763.208l-4.101 2.421c-.55.323-1.177.495-1.813.495a3.54 3.54 0 0 1-2.522-1.044l-4.116-4.116c-1.15-1.15-1.376-2.931-.552-4.331l2.423-4.105a1.5 1.5 0 0 0-.917-2.214l-4.612-1.188a3.57 3.57 0 0 1-2.676-3.455V59.11c0-1.626 1.099-3.046 2.671-3.453l4.617-1.19z" fill="#149cb2"/><path d="M139.423 62.021A11.44 11.44 0 0 0 128 50.598a11.44 11.44 0 0 0-11.423 11.423A11.44 11.44 0 0 0 128 73.444a11.44 11.44 0 0 0 11.423-11.423zm-17.846 0A6.43 6.43 0 0 1 128 55.598a6.43 6.43 0 0 1 6.423 6.423A6.43 6.43 0 0 1 128 68.444c-3.542 0-6.423-2.882-6.423-6.423z" fill="#d3d3d3"/><path d="M139.423 62.021A11.44 11.44 0 0 0 128 50.598a11.44 11.44 0 0 0-11.423 11.423A11.44 11.44 0 0 0 128 73.444a11.44 11.44 0 0 0 11.423-11.423zm-21.346 0c0-5.472 4.451-9.923 9.923-9.923s9.923 4.452 9.923 9.923-4.451 9.923-9.923 9.923-9.923-4.452-9.923-9.923zm17.846 0c0-4.369-3.554-7.923-7.923-7.923s-7.923 3.554-7.923 7.923 3.554 7.923 7.923 7.923 7.923-3.555 7.923-7.923zm-14.346 0A6.43 6.43 0 0 1 128 55.598a6.43 6.43 0 0 1 6.423 6.423A6.43 6.43 0 0 1 128 68.444c-3.542 0-6.423-2.882-6.423-6.423z" fill="#ebe7f2"/></svg>
