<svg xmlns="http://www.w3.org/2000/svg" xmlns:xlink="http://www.w3.org/1999/xlink" width="38.285" height="40.388"><g opacity=".2"><use xlink:href="#B" fill="#231f20"/></g><g opacity=".2"><use xlink:href="#C" fill="#231f20"/></g><g fill="#c75c5c"><use xlink:href="#B" y="-2"/><use xlink:href="#C" y="-2"/></g><g opacity=".2"><use xlink:href="#D" fill="#231f20"/></g><use xlink:href="#D" y="-2" fill="#e0995e"/><path d="M12.464 20.021c5.1-5.1 9.3-3.5 9.3-3.5s1.5 4.3-3.5 9.3-13.3 8.8-13.9 8.1c-.7-.6 3-8.8 8.1-13.9z" fill="#f5cf87"/><g opacity=".2"><use xlink:href="#E" fill="#231f20"/></g><use xlink:href="#E" y="-2" fill="#e0e0d1"/><g opacity=".2"><use xlink:href="#F" fill="#231f20"/></g><use xlink:href="#F" y="-2" fill="#c75c5c"/><g opacity=".2"><circle cx="26.564" cy="13.821" r="4" fill="#231f20"/></g><g opacity=".2"><circle cx="32.264" cy="8.221" r="2" fill="#231f20"/></g><g fill="#4f5d73"><circle cx="26.564" cy="11.821" r="4"/><circle cx="32.264" cy="6.221" r="2"/></g><defs ><path id="B" d="M19.064 26.421c-1.6 1.5-6.1 12.5-6.1 12.5-.7 1.2.3 2.1 2.6.9l8.1-4.4c4.4-2.4 5.2-3.1 5.2-8l-.8-5.9c-.3-2-1.8-2.4-3.3-.8z"/><path id="C" d="M14.064 21.421c-1.6 1.6-12.5 6.1-12.5 6.1-1.2.7-2.1-.3-.9-2.6l4.3-8.2c2.4-4.4 3.1-5.2 8-5.2l5.9.8c2 .3 2.4 1.8.8 3.3z"/><path id="D" d="M8.164 26.221c5.1-5.1 9.3-3.5 9.3-3.5s1.5 4.3-3.5 9.3-13.3 8.8-13.9 8.1c-.6-.5 3.1-8.8 8.1-13.9z"/><path id="E" d="M30.564 23.821c-7.8 7.8-19.8 5.7-19.8 5.7s-2.1-12 5.7-19.8 19.6-8.6 21.2-7.1c1.5 1.5.7 13.4-7.1 21.2z"/><path id="F" d="M7.964 33.721c-.8.8-1.3 1.5-2.1.7h0c-.8-.8-.1-1.3.7-2.1l9.9-12.7c.8-.8 4.2-1.5 4.9-.7h0c.8.8.1 4.2-.7 4.9z"/></defs></svg>
