<svg xmlns="http://www.w3.org/2000/svg" width="44" height="38"><g opacity=".2"><circle cx="10" cy="12" r="10" fill="#231f20"/></g><circle cx="10" cy="10" r="10" fill="#e0995e"/><g opacity=".2"><path d="M36.7 24c0-7.7-6.6-14-14.7-14-6.9 0-12.6 4.5-14.2 10.6-4.4.6-7.8 4.3-7.8 8.6C0 34 4.1 38 9.2 38h27.5c4.1 0 7.3-3.1 7.3-7s-3.3-7-7.3-7z" fill="#231f20"/></g><g opacity=".2"><path d="M20 10c0-1-.2-2-.4-2.9-6.2.6-11.3 4.9-12.8 10.5-.8.1-1.6.4-2.4.7C6 19.4 7.9 20 10 20c5.5 0 10-4.5 10-10z" fill="#231f20"/></g><path d="M36.7 22c0-7.7-6.6-14-14.7-14-6.9 0-12.6 4.5-14.2 10.6-4.4.6-7.8 4.3-7.8 8.6C0 32 4.1 36 9.2 36h27.5c4.1 0 7.3-3.1 7.3-7s-3.3-7-7.3-7z" fill="#fff"/></svg>
