<svg xmlns="http://www.w3.org/2000/svg" width="800" height="800" viewBox="0 0 32 32"><path d="M5.902 27.201L3.656 2h24.688l-2.249 25.197L15.985 30 5.902 27.201z" fill="#838383"/><path d="M16 27.858l8.17-2.265 1.922-21.532H16v23.797z" fill="#a2a2a2"/><path d="M16 13.191h4.09l.282-3.165H16V6.935h.011 7.739l-.074.829-.759 8.518H16v-3.091z" fill="#fff"/><path d="M16.019 21.218l-.014.004-3.442-.93-.22-2.465H10.67 9.24l.433 4.853 6.331 1.758.015-.004v-3.216z" fill="#ebebeb"/><path d="M19.827 16.151l-.372 4.139-3.447.93v3.216l6.336-1.756.047-.522.537-6.007h-3.101z" fill="#fff"/><path d="M16.011 6.935v1.92 1.163.008H8.555h0-.01l-.062-.695-.141-1.567-.074-.829h7.743zM16 13.191v1.92 1.163.008h-3.389 0-.01l-.062-.695-.14-1.567-.074-.829H16z" fill="#ebebeb"/></svg>
