<svg xmlns="http://www.w3.org/2000/svg" width="800" height="800" fill-rule="evenodd"><path d="M800 619c-24 9-51-1-63-24L622 436l-17-23-133 182c-11 22-37 32-60 24l172-231-160-208c23-9 50 0 63 22l119 161 120-161c11-21 37-31 60-22l-62 82-84 110c-5 4-8 10-8 16 0 7 3 13 8 17l160 214zM0 385l14-69c39-137 195-194 303-109 63 49 79 120 76 199H37c-6 141 97 227 227 183 43-15 75-51 86-96 7-22 18-26 39-19-7 54-39 103-86 131-80 44-178 31-244-31-31-35-51-80-54-128 0-8-3-15-5-22v-39zm38-10h321c-2-102-66-175-153-176-96-1-164 70-169 176z" fill="#bbb"/></svg>
