<svg xmlns="http://www.w3.org/2000/svg" viewBox="0 0 256 512" fill-rule="evenodd"><path fill ="#bbb" d="M209.8 391l-14 24.6L191 496c0 9-28.3 16-63 16s-63-7.2-63-16L59 416.5l-15-25.4c41.2 17.3 126 16.7 165.6 0zm-196-253.3l13.6 125.5c6-20 20.8-47 40-55.2 6.3-2.7 12.7-2.7 18.7 1 5.2 3 9.6 9.3 10 11.8 1.2 6.5-2 9-4.5 9-3 0-5.3-4.6-6.8-7.3-4-7.3-10.3-7.6-17-2.8-7 5-13 13.4-17 20.7-5 8.8-9.4 18.5-12 28.2-1.5 5.6-3 14.6-.6 20 1 2.2 2.5 3.6 5 3.6 5 0 12.3-6.6 15.8-10a76 76 0 0 0 12.5-16l5.2-15.5c2.6-6.8 10-5.6 10 0 0 10.2-3.7 13.6-10 34.7L69 311c-.7 2.8-3.4 7.5-6.3 7.5-1.2 0-2-.4-2.6-1.2-1-1.4-1-5.3-.8-6.3.2-3.2 6.3-22.2 7.3-25.2l-6.4 6.6c-5.4 5-14 11.8-21.5 11.8-3.4 0-5.6-1-7.7-2.4l7.6 79.6c2 5 39.2 17 88.2 17 49 0 86.3-12.2 88.2-17l11-94.6c-5.7 5.2-12.3 11.6-19.6 14.8-5.4 2.3-17.4 3.8-17.4-5.7 0-5.2 9-14.8 14.4-21.5 1.4-1.7 4.7-6 4.7-8 0-3-6-2.2-11.7 2.5-3.2 2.7-6.2 6.3-8.7 9.7a80 80 0 0 0-8.5 15.5l-9 22-5.2 14c-1 2-2.2 3.5-4 4.5-2 1-4.5 1-6-.3-1-.6-1.3-2-1.3-3.7 0-1 .1-1.8.3-2.7 1.5-6 7.8-18 15-34.3l.8-2.3a52 52 0 0 1-14.4 10.5c-5.8 2.6-13 2.6-14.5-4-.1-.4-.1-.8-.2-1.2-11.8 9.2-24.3 11.7-20-8-4.6 8.2-12.6 15-22.4 15-4 0-7-1.4-8.6-5-2.3-5.5 1.3-15 4.6-23.8l7-16.2c1.6-3.4 4.2-5.4 7.6-4.5.6.2 1 .4 1.6.7 2.6 1.8 1.6 4.5.3 7.2-3.8 7.5-7 13-9.3 20.8-1 3.3-2 9 1.5 9 2.4 0 4.7-.8 7-2.4 4.6-3.4 8.3-8.5 11-13.5l5.6-12.3a34 34 0 0 1 1.8-4.8c1-2.5 2.6-5 5.2-5 1.3 0 2.4.5 3.2 1.5 1.7 2.2 1.3 4.5.4 7-2 5.6-4.7 10.6-7 16.7a37 37 0 0 0-2.7 11.7c0 3.4 3.7 2.6 6.8 1.2a31 31 0 0 0 6.8-4.5c1.2-5 1-3.8 26.4-68.2 1.3-3.3 3.7-4.7 6-4.7 1.2 0 2.2.4 3.2 1 1.7 1.3 1.7 4 1 6.2-.7 2-.6 1.3-4.5 10.5l-13.2 32a474 474 0 0 0-8.7 22.3c-.6 2.2-1.3 5.8 1 5.8 5.4 0 19.3-13 23-17 .2-.3.5-.4 1-.6l1.7-5.5c1.4-3.8 2.7-8.2 5.3-11.3.8-1 1.7-1.6 2.7-1.6 2.8 0 4.2 1.2 4.2 4 0 1-.7 5-1 6.2l4.5-4.5c15-14 25.7-6.8 25.7.2 0 7.4-9 17.7-13.8 23.4-1.6 2-5 5.4-5 6.4 0 1.3 1 1.8 2.2 1.8 2 0 6.4-3.5 8-4.7l16.6-14L242 137.6c-30.5 17-197.6 17.2-228.3.2zm229.7-8.5c0 21-231.2 21-231.2 0 0-8.8 51.8-16 115.6-16l26.3.4L166.8 65 228 .6c1.4-1.4 5.8-.2 10 3.5s6.6 8 5.3 9.3l-.1.1L186 74l-10 40.7c40 2.6 67.6 8 67.6 14.6zM174 134c0-.8-1-1.5-2.5-2l-.2.8c0 1.3-5 2.4-11 2.4s-11-1-11-2.4c0-.1 0-.2.1-.3l.2-.7c-1.8.6-3 1.4-3 2.3 0 2 6.2 3.7 13.7 3.7 7.7.1 14-1.6 14-3.7z"/></svg>
