<svg xmlns="http://www.w3.org/2000/svg" width="800" height="800" viewBox="-16.5 0 289 289" preserveAspectRatio="xMidYMid"><path d="M128 288.464c-3.975 0-7.685-1.06-11.13-2.915l-35.246-20.936c-5.3-2.915-2.65-3.975-1.06-4.505 7.155-2.385 8.48-2.915 15.901-7.155.795-.53 1.855-.265 2.65.265l27.031 16.166c1.06.53 2.385.53 3.18 0l105.739-61.217c1.06-.53 1.59-1.59 1.59-2.915V83.081c0-1.325-.53-2.385-1.59-2.915L129.325 19.213c-1.06-.53-2.385-.53-3.18 0L20.406 80.166c-1.06.53-1.59 1.855-1.59 2.915v122.17c0 1.06.53 2.385 1.59 2.915l28.886 16.696c15.636 7.95 25.441-1.325 25.441-10.6V93.681c0-1.59 1.325-3.18 3.18-3.18h13.516c1.59 0 3.18 1.325 3.18 3.18v120.58c0 20.936-11.395 33.126-31.271 33.126-6.095 0-10.865 0-24.381-6.625L11.13 224.861C4.24 220.886 0 213.466 0 205.516V83.346C0 75.395 4.24 67.975 11.13 64L116.87 2.783c6.625-3.71 15.636-3.71 22.261 0L244.87 64C251.76 67.975 256 75.395 256 83.346v122.17c0 7.95-4.24 15.371-11.13 19.346L139.13 286.079c-3.445 1.59-7.42 2.385-11.13 2.385h0zm32.596-84.008c-46.377 0-55.917-21.201-55.917-39.222 0-1.59 1.325-3.18 3.18-3.18h13.781c1.59 0 2.915 1.06 2.915 2.65 2.12 14.046 8.215 20.936 36.306 20.936 22.261 0 31.801-5.035 31.801-16.961 0-6.89-2.65-11.925-37.366-15.371-28.886-2.915-46.907-9.275-46.907-32.331 0-21.466 18.021-34.186 48.232-34.186 33.921 0 50.617 11.66 52.737 37.101 0 .795-.265 1.59-.795 2.385-.53.53-1.325 1.06-2.12 1.06h-13.781c-1.325 0-2.65-1.06-2.915-2.385-3.18-14.576-11.395-19.346-33.126-19.346-24.381 0-27.296 8.48-27.296 14.841 0 7.685 3.445 10.07 36.306 14.311 32.596 4.24 47.967 10.335 47.967 33.126-.265 23.321-19.346 36.571-53.002 36.571h0z" fill="#838383"/></svg>
