<svg xmlns="http://www.w3.org/2000/svg" width="800" height="800" viewBox="0 0 32 32" fill="#838383"><path d="M18.679 15.976c0-1.434-1.199-2.597-2.679-2.597s-2.679 1.163-2.679 2.597 1.2 2.598 2.679 2.598 2.679-1.163 2.679-2.597z"/><path fill-rule="evenodd" d="M24.7 11.154c.566-2.229 1.277-6.362-1.23-7.764-2.495-1.395-5.742 1.278-7.457 2.883-1.71-1.589-5.048-4.251-7.552-2.845-2.494 1.4-1.725 5.465-1.147 7.708-2.326.64-6.314 2.02-6.314 4.84 0 2.812 3.984 4.313 6.297 4.953-.58 2.255-1.311 6.262 1.186 7.659 2.514 1.406 5.842-1.193 7.572-2.815 1.726 1.614 4.941 4.23 7.437 2.829 2.503-1.405 1.851-5.483 1.273-7.739 2.242-.642 6.235-2.11 6.235-4.887 0-2.792-4.01-4.184-6.3-4.822zm-.284 8.513c-.38-1.165-.892-2.405-1.519-3.685a28.66 28.66 0 0 0 1.46-3.631c1.679.472 5.361 1.55 5.361 3.625 0 2.094-3.534 3.183-5.302 3.691zm-1.566 7.859c-1.862 1.045-4.628-1.456-5.902-2.645.845-.896 1.69-1.939 2.515-3.096a30.9 30.9 0 0 0 4.063-.607c.407 1.596 1.195 5.299-.676 6.348zm-13.726-.015c-1.862-1.041-1.011-4.616-.584-6.278 1.229.264 2.589.453 4.043.567.83 1.132 1.699 2.173 2.575 3.085-1.082 1.015-4.163 3.671-6.034 2.625zM2.281 15.976c0-2.102 3.661-3.173 5.378-3.643.375 1.184.868 2.422 1.462 3.674a29.69 29.69 0 0 0-1.48 3.726c-1.637-.454-5.359-1.653-5.359-3.756zM9.104 4.504c1.87-1.049 4.771 1.506 6.012 2.657a29.97 29.97 0 0 0-2.556 3.066c-1.411.127-2.762.33-4.003.603-.466-1.809-1.321-5.278.547-6.326zm11.276 7.074l2.735.463c-.258.803-.581 1.644-.96 2.505l-1.775-2.968zm-4.365-3.529a27 27 0 0 1 1.766 2.066l-3.546-.001 1.78-2.066zm-6.158 6.496l-.953-2.517 2.72-.453-1.766 2.97zm1.794 5.921l-2.765-.431a27.47 27.47 0 0 1 .972-2.568l1.792 2.999zm4.4 3.526a28.14 28.14 0 0 1-1.805-2.094l3.566-.006-1.761 2.101zm6.117-6.569c.401.886.739 1.744 1.008 2.559a27.97 27.97 0 0 1-2.799.463l1.791-3.021zm-3.419 3.172c-1.817.126-3.646.124-5.463.01-1.033-1.463-1.952-3.001-2.746-4.599a34.91 34.91 0 0 1 2.731-4.59 37.24 37.24 0 0 1 5.468.001c1.019 1.46 1.931 2.992 2.739 4.571a39.21 39.21 0 0 1-2.728 4.606zM22.83 4.467c1.87 1.046 1.038 4.761.629 6.376-1.245-.278-2.596-.486-4.011-.614-.824-1.138-1.678-2.173-2.536-3.069 1.257-1.175 4.066-3.729 5.918-2.693z"/></svg>
