<svg xmlns="http://www.w3.org/2000/svg" width="800" height="800" viewBox="0 -32 256 256" preserveAspectRatio="xMidYMid" xmlns:v="https://vecta.io/nano"><path d="M220.281 110.514c-8.906.047-16.647 2.192-23.129 5.362-2.378-4.71-4.756-8.906-5.176-11.984-.466-3.591-1.026-5.782-.466-10.072s3.078-10.399 3.031-10.865-.56-2.658-5.689-2.705-9.559.979-10.072 2.332-1.492 4.43-2.145 7.601c-.886 4.663-10.259 21.31-15.621 30.03-1.725-3.404-3.217-6.388-3.544-8.766-.466-3.591-1.026-5.782-.466-10.072s3.078-10.399 3.031-10.865-.56-2.658-5.689-2.705-9.559.979-10.072 2.332-1.072 4.523-2.145 7.601-13.523 30.869-16.787 38.05c-1.679 3.684-3.124 6.621-4.15 8.627h0s-.047.14-.187.373l-1.399 2.658v.047c-.699 1.259-1.446 2.425-1.819 2.425-.28 0-.793-3.357.093-7.927 1.865-9.652 6.295-24.667 6.248-25.18 0-.28.839-2.891-2.891-4.243-3.637-1.352-4.943.886-5.269.886s-.56.793-.56.793 4.057-16.88-7.741-16.88c-7.368 0-17.533 8.067-22.569 15.341l-17.16 9.373-8.254 4.523c-.187-.187-.373-.42-.56-.606-14.269-15.248-40.662-26.02-39.542-46.49.42-7.461 2.984-27.046 50.687-50.827 39.263-19.352 70.505-13.989 75.914-2.098 7.741 16.973-16.74 48.495-57.309 53.065-15.481 1.725-23.595-4.243-25.647-6.482-2.145-2.332-2.471-2.471-3.264-2.005-1.306.699-.466 2.798 0 4.01 1.212 3.171 6.202 8.766 14.642 11.518 7.461 2.425 25.6 3.777 47.563-4.71 24.574-9.513 43.786-35.952 38.144-58.101-5.642-22.476-42.946-29.89-78.246-17.346-20.98 7.457-43.736 19.208-60.103 34.503C2.518 59.22-.56 75.028.699 81.65c4.523 23.502 36.931 38.796 49.894 50.128l-1.772.979c-6.482 3.217-31.196 16.134-37.351 29.797-6.995 15.481 1.119 26.579 6.482 28.071 16.647 4.616 33.76-3.684 42.946-17.393s8.067-31.522 3.824-39.682c-.047-.093-.093-.187-.187-.28l5.083-2.984c3.311-1.958 6.575-3.777 9.373-5.269-1.585 4.337-2.751 9.513-3.311 16.973-.699 8.766 2.891 20.144 7.601 24.621 2.098 1.958 4.57 2.005 6.155 2.005 5.502 0 7.974-4.57 10.725-9.979 3.357-6.621 6.388-14.315 6.388-14.315s-3.777 20.797 6.482 20.797c3.73 0 7.507-4.85 9.186-7.321v.047s.093-.14.28-.466l.606-.979v-.093c1.492-2.611 4.85-8.533 9.839-18.372 6.435-12.683 12.637-28.538 12.637-28.538s.56 3.87 2.471 10.305c1.119 3.777 3.451 7.927 5.316 11.937-1.492 2.098-2.425 3.264-2.425 3.264l.047.047c-1.212 1.585-2.518 3.311-3.964 4.989-5.083 6.062-11.145 13.01-11.984 15.015-.979 2.378-.746 4.103 1.119 5.502 1.352 1.026 3.777 1.166 6.248 1.026 4.57-.326 7.787-1.446 9.373-2.145 2.471-.886 5.362-2.238 8.067-4.243 4.989-3.684 8.02-8.953 7.741-15.901-.14-3.824-1.399-7.647-2.938-11.238.466-.653.886-1.306 1.352-1.958 7.881-11.518 13.989-24.154 13.989-24.154s.56 3.87 2.471 10.305c.933 3.264 2.844 6.808 4.523 10.259-7.414 6.015-11.984 13.01-13.616 17.58-2.938 8.487-.653 12.31 3.684 13.196 1.958.42 4.756-.513 6.808-1.399 2.611-.839 5.689-2.285 8.627-4.43 4.989-3.684 9.792-8.813 9.513-15.761-.14-3.171-.979-6.295-2.145-9.326 6.295-2.611 14.409-4.057 24.761-2.844 22.196 2.611 26.579 16.46 25.74 22.289s-5.502 9-7.041 9.979-2.052 1.306-1.912 2.005c.187 1.026.933.979 2.238.793 1.819-.326 11.658-4.71 12.077-15.435.699-13.709-12.357-28.678-35.439-28.538h0zM49.055 168.242c-7.368 8.02-17.626 11.051-22.056 8.487-4.756-2.751-2.891-14.595 6.155-23.082 5.502-5.176 12.59-9.979 17.3-12.917l4.57-2.751c.326-.187.513-.28.513-.28h0l1.119-.699c3.311 12.124.14 22.802-7.601 31.242h0zm53.625-36.465c-2.565 6.248-7.927 22.243-11.191 21.357-2.798-.746-4.523-12.87-.56-24.854 2.005-6.015 6.248-13.196 8.72-15.994 4.01-4.477 8.44-5.969 9.513-4.15 1.352 2.378-4.896 19.725-6.482 23.642h0zm44.252 21.17c-1.072.56-2.098.933-2.565.653-.326-.187.466-.933.466-.933s5.549-5.969 7.741-8.673l4.337-5.549v.606c0 7.134-6.901 11.937-9.979 13.896h0zm34.133-7.787c-.793-.56-.653-2.425 2.005-8.254 1.026-2.285 3.451-6.109 7.601-9.792.466 1.492.793 2.938.746 4.29-.047 9-6.482 12.357-10.352 13.756h0z" fill="#838383"/></svg>