<svg xmlns="http://www.w3.org/2000/svg" viewBox="0 0 347 350" fill-rule="evenodd"><path fill ="#bbb" d="M287 0l-3 13c-4 25-2 32 8 41l11 8-11 48c-6 28-14 52-19 59-4 7-9 17-10 22-2 7-8 13-17 19-8 4-24 16-35 26-9 8-16 13-19 16l-11 8c-3 6-5 10-6 14s-1 6 1 8c1 1 3 2 5 3 3 1 6 1 10 1 7-1 14-2 21-4 2 0 4-1 5-2 3-3 9-8 19-18 26-27 37-41 26-37-4 1-2-2 5-9 14-14 22-35 39-100 13-52 13-53 23-53 5 0 18 1 18 1V0h-30zM168 110c-10 0-31 15-93 66-3 7-3 11-2 14 1 2 2 3 4 4s5 2 8 2c6 1 12 0 18-1l3-1c2-2 3-3 5-4 4-2 20-17 36-33 29-29 36-42 24-46-1-1-2-1-3-1zm73 20c-8 1-24 10-50 32-13 10-22 16-26 17l-18 14c-6 12-7 20-6 24 1 2 3 3 5 4 3 1 5 2 8 2 7 0 13-1 19-3 4-1 7-2 10-3l1-1 2-1c3-4 11-12 20-21 31-30 46-50 43-58-1-4-4-6-8-6zm-81 36c-2 1-8 5-17 14-15 12-31 20-36 16-1 1-3 1-4 1-5 1-12 2-18 2-3-1-6-1-9-2-2-2-4-4-5-6-2-3-2-7 0-12l-22 18-49 41v66l161-127v-4c1-5 1-7-1-7zm70 22c-3 0-7 3-13 10-9 9-23 18-30 20l-2 1c-1 0-2 1-3 1-2 1-5 2-8 3-6 1-13 3-20 3-3 0-6-1-9-2s-5-4-6-6c-2-5-1-11 3-21L0 309v40h62l132-104c4-3 9-9 16-15 19-17 23-23 23-32 0-7-1-10-3-10zm31 65l-11 11c-7 6-18 13-26 16l-1 1h0l-1 1c-3 1-6 2-10 3-7 2-14 3-21 4-4 0-7 0-11-1-3-1-5-2-7-5-2-2-2-6-1-10 1-3 2-5 3-8L69 349h141l17-19c23-27 34-47 34-63z"/></svg>
